<?xml version="1.0" encoding="UTF-8" standalone="no"?>
<svg
   xmlns:dc="http://purl.org/dc/elements/1.1/"
   xmlns:cc="http://creativecommons.org/ns#"
   xmlns:rdf="http://www.w3.org/1999/02/22-rdf-syntax-ns#"
   xmlns:svg="http://www.w3.org/2000/svg"
   xmlns="http://www.w3.org/2000/svg"
   xmlns:sodipodi="http://sodipodi.sourceforge.net/DTD/sodipodi-0.dtd"
   xmlns:inkscape="http://www.inkscape.org/namespaces/inkscape"
   width="210mm"
   height="297mm"
   viewBox="0 0 210 297"
   version="1.1"
   id="svg8"
   inkscape:version="1.0.1 (0767f8302a, 2020-10-17)"
   sodipodi:docname="dibujo.svgVGFNGFNFGNFBNFXGNZFGTBN.svg">
  <defs
     id="defs2" />
  <sodipodi:namedview
     id="base"
     pagecolor="#ffffff"
     bordercolor="#666666"
     borderopacity="1.0"
     inkscape:pageopacity="0.0"
     inkscape:pageshadow="2"
     inkscape:zoom="0.35"
     inkscape:cx="1.5889195"
     inkscape:cy="795.51357"
     inkscape:document-units="mm"
     inkscape:current-layer="layer1"
     inkscape:document-rotation="0"
     showgrid="false"
     inkscape:window-width="1352"
     inkscape:window-height="1023"
     inkscape:window-x="0"
     inkscape:window-y="27"
     inkscape:window-maximized="0" />
  <metadata
     id="metadata5">
    <rdf:RDF>
      <cc:Work
         rdf:about="">
        <dc:format>image/svg+xml</dc:format>
        <dc:type
           rdf:resource="http://purl.org/dc/dcmitype/StillImage" />
        <dc:title></dc:title>
      </cc:Work>
    </rdf:RDF>
  </metadata>
  <g
     inkscape:label="Capa 1"
     inkscape:groupmode="layer"
     id="layer1">
    <rect
       style="fill:#0000ff;fill-rule:evenodd;stroke-width:0.264583"
       id="rect10"
       width="126.89268"
       height="75.933273"
       x="42.747162"
       y="46.955467" />
    <rect
       style="fill:#0000ff;fill-rule:evenodd;stroke-width:0.264583"
       id="rect12"
       width="0.045585997"
       height="37.627708"
       x="132.45573"
       y="159.5387" />
    <rect
       style="fill:#0000ff;fill-rule:evenodd;stroke-width:0.264583"
       id="rect14"
       width="43.474731"
       height="32.044125"
       x="88.981003"
       y="197.1664" />
    <rect
       style="fill:#0000ff;fill-rule:evenodd;stroke-width:0.264583"
       id="rect16"
       width="25.676451"
       height="2.3571043"
       x="63.304554"
       y="229.21053" />
    <rect
       style="fill:#0000ff;fill-rule:evenodd;stroke-width:0.264583"
       id="rect18"
       width="61.327328"
       height="44.875259"
       x="108.37124"
       y="150.51466" />
    <rect
       style="fill:#0000ff;fill-rule:evenodd;stroke-width:0.264583"
       id="rect20"
       width="52.662334"
       height="29.089258"
       x="117.03622"
       y="121.4254" />
    <rect
       style="fill:#0000ff;fill-rule:evenodd;stroke-width:0.264583"
       id="rect22"
       width="48.996395"
       height="28.555399"
       x="68.039825"
       y="121.95926" />
    <rect
       style="fill:#0000ff;fill-rule:evenodd;stroke-width:0.264583"
       id="rect24"
       width="36.303062"
       height="49.724617"
       x="42.747162"
       y="122.88874" />
    <rect
       style="fill:#0000ff;fill-rule:evenodd;stroke-width:0.264583"
       id="rect26"
       width="30.653084"
       height="5.1657562"
       x="79.050224"
       y="172.61336" />
    <rect
       style="fill:#0000ff;fill-rule:evenodd;stroke-width:0.264583"
       id="rect28"
       width="41.663483"
       height="22.098694"
       x="68.039825"
       y="150.51466" />
    <rect
       style="fill:#0000ff;fill-rule:evenodd;stroke-width:0.264583"
       id="rect30"
       width="36.303062"
       height="5.1657562"
       x="42.747162"
       y="172.61334" />
    <rect
       style="fill:#0000ff;fill-rule:evenodd;stroke-width:0.264583"
       id="rect32"
       width="13.908843"
       height="16.958677"
       x="94.462395"
       y="178.43124" />
    <rect
       style="fill:#0000ff;fill-rule:evenodd;stroke-width:0.264583"
       id="rect34"
       width="51.715233"
       height="17.610825"
       x="42.747162"
       y="177.7791" />
    <rect
       style="fill:#0000ff;fill-rule:evenodd;stroke-width:0.264583"
       id="rect36"
       width="89.708572"
       height="33.820602"
       x="42.747162"
       y="195.38992" />
    <rect
       style="fill:#0000ff;fill-rule:evenodd;stroke-width:0.264583"
       id="rect38"
       width="37.242828"
       height="33.820602"
       x="132.45573"
       y="195.38992" />
    <rect
       style="fill:#0000ff;fill-rule:evenodd;stroke-width:0.264583"
       id="rect40"
       width="28.05522"
       height="46.651733"
       x="88.981003"
       y="150.51466" />
    <rect
       style="fill:#0000ff;fill-rule:evenodd;stroke-width:0.264583"
       id="rect42"
       width="126.41356"
       height="42.123363"
       x="42.747162"
       y="229.21053" />
    <rect
       style="fill:#0000ff;fill-rule:evenodd;stroke-width:0.264583"
       id="rect44"
       width="126.41356"
       height="224.37842"
       x="42.747162"
       y="46.955467" />
    <rect
       style="fill:#0000ff;fill-rule:evenodd;stroke-width:0.264583"
       id="rect46"
       width="14.505391"
       height="35.423229"
       x="94.462395"
       y="178.43124" />
    <rect
       style="fill:#0000ff;fill-rule:evenodd;stroke-width:0.264583"
       id="rect48"
       width="1.3320694"
       height="22.776566"
       x="108.37123"
       y="172.61334" />
    <rect
       style="fill:#0000ff;fill-rule:evenodd;stroke-width:0.264583"
       id="rect50"
       width="22.752426"
       height="18.240417"
       x="109.70331"
       y="159.5387" />
    <rect
       style="fill:#0000ff;fill-rule:evenodd;stroke-width:0.264583"
       id="rect52"
       width="7.3329158"
       height="9.0240326"
       x="109.70331"
       y="150.51466" />
    <rect
       style="fill:#0000ff;fill-rule:evenodd;stroke-width:0.264583"
       id="rect60"
       width="13.908844"
       height="35.423233"
       x="94.462395"
       y="178.43124" />
    <rect
       style="fill:#0000ff;fill-rule:evenodd;stroke-width:0.264583"
       id="rect62"
       width="8.6649857"
       height="56.471985"
       x="108.37123"
       y="121.95926" />
    <rect
       style="fill:#0000ff;fill-rule:evenodd;stroke-width:0.264583"
       id="rect64"
       width="7.6293945e-06"
       height="28.555405"
       x="108.37122"
       y="121.95926" />
    <rect
       style="fill:#0000ff;fill-rule:evenodd;stroke-width:0.264583"
       id="rect72"
       width="9.9307775"
       height="22.098679"
       x="79.050224"
       y="150.51466" />
    <rect
       style="fill:#0000ff;fill-rule:evenodd;stroke-width:0.264583"
       id="rect89"
       width="0.59655762"
       height="16.958664"
       x="108.37122"
       y="178.43124" />
    <rect
       style="fill:#0000ff;fill-rule:evenodd;stroke-width:0.264583"
       id="rect91"
       width="3.4614444"
       height="29.86755"
       x="85.519562"
       y="231.56763" />
    <rect
       style="fill:#0000ff;fill-rule:evenodd;stroke-width:0.264583"
       id="rect99"
       width="13.908835"
       height="41.241135"
       x="94.462395"
       y="172.61334" />
    <rect
       style="fill:#0000ff;fill-rule:evenodd;stroke-width:0.264583"
       id="rect104"
       width="5.4813919"
       height="24.553055"
       x="88.981003"
       y="172.61334" />
    <rect
       style="fill:#0000ff;fill-rule:evenodd;stroke-width:0.264583"
       id="rect109"
       width="9.9307775"
       height="19.387283"
       x="79.050224"
       y="177.77911" />
    <rect
       style="fill:#0000ff;fill-rule:evenodd;stroke-width:0.264583"
       id="rect111"
       width="25.803841"
       height="74.76915"
       x="63.177158"
       y="75.745514" />
    <rect
       style="fill:#0000ff;fill-rule:evenodd;stroke-width:0.264583"
       id="rect113"
       width="34.679592"
       height="69.454613"
       x="8.0675678"
       y="159.75591" />
    <rect
       style="fill:#0000ff;fill-rule:evenodd;stroke-width:0.264583"
       id="rect115"
       width="34.679592"
       height="42.123383"
       x="8.0675678"
       y="229.21051" />
    <rect
       style="fill:#0000ff;fill-rule:evenodd;stroke-width:0.264583"
       id="rect117"
       width="34.535595"
       height="112.48115"
       x="8.2115698"
       y="47.274754" />
    <rect
       style="fill:#0000ff;fill-rule:evenodd;stroke-width:0.264583"
       id="rect119"
       width="32.442471"
       height="220.58652"
       x="169.63983"
       y="46.955467" />
    <rect
       style="fill:#0000ff;fill-rule:evenodd;stroke-width:0.264583"
       id="rect121"
       width="43.852127"
       height="157.06995"
       x="158.23018"
       y="110.47205" />
    <rect
       style="fill:#0000ff;fill-rule:evenodd;stroke-width:0.264583"
       id="rect129"
       width="32.921585"
       height="3.7919004"
       x="169.16072"
       y="267.54199" />
    <ellipse
       style="fill:#ff0000;fill-rule:evenodd;stroke-width:0.264583"
       id="path131"
       cx="67.199661"
       cy="30.745296"
       rx="28.632618"
       ry="20.808289" />
    <ellipse
       style="fill:#ff0000;fill-rule:evenodd;stroke-width:0.264583"
       id="path133"
       cx="135.11345"
       cy="36.692688"
       rx="16.527946"
       ry="19.029339" />
    <ellipse
       style="fill:#ff0000;fill-rule:evenodd;stroke-width:0.264583"
       id="path135"
       cx="61.088287"
       cy="121.48154"
       rx="47.282928"
       ry="29.033121" />
    <ellipse
       style="fill:#ff0000;fill-rule:evenodd;stroke-width:0.264583"
       id="path137"
       cx="151.55551"
       cy="139.62685"
       rx="6.674674"
       ry="29.154795" />
    <ellipse
       style="fill:#ff0000;fill-rule:evenodd;stroke-width:0.264583"
       id="path139"
       cx="91.565781"
       cy="206.94177"
       rx="16.805441"
       ry="11.551862" />
    <ellipse
       style="fill:#ff0000;fill-rule:evenodd;stroke-width:0.264583"
       id="path144"
       cx="169.42964"
       cy="231.46596"
       rx="0.26892087"
       ry="36.076035" />
    <ellipse
       style="fill:#ff0000;fill-rule:evenodd;stroke-width:0.264583"
       id="path146"
       cx="110.74117"
       cy="229.3008"
       rx="21.760162"
       ry="32.134384" />
    <ellipse
       style="fill:#ff0000;fill-rule:evenodd;stroke-width:0.264583"
       id="path148"
       cx="47.761738"
       cy="203.75809"
       rx="20.278088"
       ry="31.144739" />
    <ellipse
       style="fill:#ff0000;fill-rule:evenodd;stroke-width:0.264583"
       id="path150"
       cx="98.043221"
       cy="178.35255"
       rx="18.993"
       ry="18.81385" />
    <ellipse
       style="fill:#ff0000;fill-rule:evenodd;stroke-width:0.264583"
       id="path152"
       cx="119.34919"
       cy="146.25221"
       rx="24.886795"
       ry="26.361134" />
    <ellipse
       style="fill:#ff0000;fill-rule:evenodd;stroke-width:0.264583"
       id="path154"
       cx="128.65919"
       cy="106.83519"
       rx="20.287971"
       ry="15.124063" />
    <ellipse
       style="fill:#ff0000;fill-rule:evenodd;stroke-width:0.264583"
       id="path156"
       cx="86.471535"
       cy="94.917625"
       rx="29.007576"
       ry="15.691376" />
    <ellipse
       style="fill:#ff0000;fill-rule:evenodd;stroke-width:0.264583"
       id="path158"
       cx="33.700119"
       cy="66.278587"
       rx="9.0470467"
       ry="19.003834" />
    <path
       style="fill:#a0a0a0;stroke:none;stroke-width:2.85714"
       d="m 393.70112,979.7356 c -17.2694,-8.75595 -31.53889,-24.82558 -41.90911,-47.19609 -10.7868,-23.26914 -13.96395,-43.16606 -12.35392,-77.36643 l 1.42834,-30.34046 -15.5666,-3.48365 c -11.76858,-2.63369 -18.65145,-6.43946 -28.21018,-15.59835 -14.48868,-13.88257 -16.51344,-25.28431 -7.20187,-40.55462 6.85403,-11.24015 31.75678,-23.9294 47.26211,-24.08255 l 11.58189,-0.11428 -8.57143,-4.50449 c -13.3275,-7.00406 -27.32206,-21.29203 -33.14329,-33.83826 -6.57104,-14.16228 -7.04946,-40.582 -0.99762,-55.09177 8.80804,-21.11797 31.58931,-38.54791 55.34859,-42.34717 8.1634,-1.30537 10.93909,-2.84928 9.12515,-5.07568 -5.04846,-6.19632 -11.7614,-34.41048 -11.7614,-49.43252 0,-8.35764 -0.51092,-15.19571 -1.13537,-15.19571 -0.62443,0 -9.05155,3.92764 -18.72692,8.72809 -33.41731,16.58005 -56.10796,20.94031 -108.70914,20.88963 -43.14132,-0.0416 -49.319,-0.70881 -72.78033,-7.86093 C 110.9899,543.12845 78.84666,521.23316 63.746507,493.4892 53.109918,473.94628 51.388676,459.7217 57.229345,439.63051 c 6.648749,-22.8709 33.838769,-50.30021 64.429065,-64.99608 23.5925,-11.33407 63.13056,-21.92666 81.96072,-21.95799 6.61662,-0.011 13.3219,-1.62716 14.90063,-3.59144 1.57873,-1.96429 6.97797,-8.47543 11.99831,-14.46921 35.87376,-42.82969 148.33476,-44.84582 189.77834,-3.40224 6.65331,6.65331 12.9824,16.12834 14.0646,21.05561 1.0822,4.92728 2.34491,8.95869 2.80602,8.95869 0.46109,0 7.10895,-2.78027 14.77298,-6.17839 26.04265,-11.54691 65.90834,-6.7478 88.7648,10.68568 40.64751,31.00337 15.01605,86.70717 -42.28826,91.90334 l -17.04972,1.54602 14.35892,8.20072 c 29.29894,16.73331 47.35803,50.08538 46.94523,86.69978 -0.58832,52.17891 -36.3656,91.9458 -85.56192,95.103 l -20.57794,1.32062 2.8094,10.17483 c 8.78629,31.82137 -16.54603,70.9876 -52.10754,80.56332 l -12.68035,3.41445 8.0196,4.20189 c 6.23289,3.26574 9.97618,3.51983 16.80163,1.14046 30.41372,-10.60226 64.66492,8.05731 83.68415,45.58994 16.56377,32.68706 20.1728,86.86766 8.17828,122.7772 -7.63528,22.8588 -25.86697,48.44406 -41.23686,57.86934 -19.41757,11.90749 -37.4938,13.02983 -56.29831,3.49555 z m 49.31637,-524.28556 11.42857,-0.18903 -10.42151,-5.50606 c -19.92294,-10.52601 -38.98706,-40.78381 -32.4056,-51.43284 2.57014,-4.15855 -0.3926,-3.46851 -13.23252,3.08192 -11.15534,5.69103 -11.39131,6.10215 -6.97017,12.14286 8.62326,11.78217 15.88695,31.01419 15.88695,42.06386 v 11.05201 l 12.14285,-5.51185 c 6.67857,-3.03151 17.28572,-5.59691 23.57143,-5.70087 z"
       id="path160"
       transform="scale(0.26458333)" />
    <path
       style="fill:#a0a0a0;stroke:none;stroke-width:2.85714"
       d="m 391.22058,975.62654 c -16.63769,-9.54254 -31.83897,-28.51049 -41.40346,-51.66257 -5.32766,-12.89632 -6.7198,-22.95235 -8.04929,-58.1424 l -1.60748,-42.54915 -13.36985,-3.38657 c -14.61759,-3.7026 -31.80006,-15.34717 -37.00972,-25.08151 -4.50018,-8.40866 -3.81083,-20.31417 1.65966,-28.66317 6.17887,-9.43017 28.65031,-21.12292 45.32694,-23.58537 l 13.74988,-2.03029 -9.46417,-5.65443 c -25.87548,-15.45946 -36.60703,-33.2792 -36.60703,-60.78608 0,-21.02638 5.63178,-35.10066 19.02405,-47.5428 9.47687,-8.80452 29.9341,-19.58086 37.2907,-19.6438 10.93265,-0.0934 12.07917,-3.55763 6.61677,-19.99233 -2.86603,-8.62302 -6.11003,-23.71393 -7.20892,-33.53536 -1.09888,-9.82143 -3.20017,-17.85714 -4.66954,-17.85714 -1.46937,0 -8.76843,3.08949 -16.22011,6.86555 -32.61542,16.52749 -52.24626,20.2187 -107.69009,20.2491 -45.97387,0.0252 -53.70136,-0.68147 -72.85714,-6.66283 C 96.774231,536.61924 59.787394,502.65762 56.417359,462.01943 52.436224,414.01217 114.30539,366.4793 195.46628,355.19086 c 20.82867,-2.897 22.10868,-3.53318 36.00243,-17.89355 25.25927,-26.10761 53.16313,-34.7806 104.75721,-32.56032 49.66029,2.13707 80.85937,16.62425 93.92469,43.6136 5.45928,11.27739 7.40377,13.05129 12.52202,11.42358 27.50855,-8.74829 36.0244,-10.20635 51.16852,-8.76094 59.25683,5.6557 84.5622,53.09775 46.29094,86.78544 -12.26994,10.80045 -23.13123,15.1194 -48.54317,19.30303 l -11.42857,1.88151 7.06871,4.69375 c 20.55552,13.64921 30.9644,23.55368 39.23649,37.33496 28.3962,47.3082 13.10663,110.31622 -32.83734,135.32205 -11.12032,6.05245 -39.40672,12.91337 -55.28172,13.40871 -0.9976,0.0311 -1.15174,8.30506 -0.34248,18.38652 1.21017,15.07642 0.3486,20.6492 -4.85403,31.3964 -7.61243,15.7252 -28.1216,34.49965 -42.51617,38.92002 -20.26212,6.22223 -19.55478,5.725 -13.3306,9.37072 3.27662,1.91923 17.37565,3.3608 33.05042,3.37928 25.04212,0.0294 28.33918,0.69518 39.28889,7.93203 15.82709,10.4604 30.31209,30.70363 38.30234,53.52877 5.52535,15.7838 6.5012,24.36115 6.5012,57.14286 0,36.18403 -0.49043,39.6186 -7.92325,55.48969 -24.35895,52.01277 -59.77055,70.71677 -95.30223,50.33757 z m 40.27671,-516.22895 c 7.80674,-2.13621 16.80674,-3.88883 20,-3.8947 4.51232,-0.008 3.57783,-1.34833 -4.19408,-6.01427 -20.47986,-12.29528 -34.28572,-31.10739 -34.28572,-46.71837 0,-3.99118 -1.24208,-7.25668 -2.7602,-7.25668 -4.40757,0 -22.95408,9.42602 -22.95408,11.66611 0,1.11998 3.19765,7.63185 7.10588,14.47082 3.90823,6.83897 8.58892,19.89557 10.40154,29.01466 2.68846,13.52527 4.14295,16.215 7.89412,14.5983 2.52914,-1.09002 10.9858,-3.72966 18.79254,-5.86587 z"
       id="path162"
       transform="scale(0.26458333)" />
    <path
       style="fill:#a0a0a0;stroke:none;stroke-width:2.85714"
       d="m 391.22058,975.62654 c -16.63769,-9.54254 -31.83897,-28.51049 -41.40346,-51.66257 -5.32766,-12.89632 -6.7198,-22.95235 -8.04929,-58.1424 l -1.60748,-42.54915 -13.36985,-3.38657 c -14.61759,-3.7026 -31.80006,-15.34717 -37.00972,-25.08151 -4.50018,-8.40866 -3.81083,-20.31417 1.65966,-28.66317 6.17887,-9.43017 28.65031,-21.12292 45.32694,-23.58537 l 13.74988,-2.03029 -9.46417,-5.65443 c -25.87548,-15.45946 -36.60703,-33.2792 -36.60703,-60.78608 0,-21.02638 5.63178,-35.10066 19.02405,-47.5428 9.94124,-9.23595 30.08492,-19.60006 38.09467,-19.60006 8.42545,0 9.56588,-5.70912 4.64165,-23.23654 -2.36954,-8.43419 -5.16882,-22.72775 -6.22065,-31.76346 -1.05183,-9.03572 -2.86892,-16.42857 -4.03797,-16.42857 -1.16906,0 -11.62806,4.33925 -23.24223,9.64278 -33.20441,15.16256 -46.87021,17.49437 -102.54523,17.49737 -44.43269,0.002 -52.38599,-0.74232 -71.42857,-6.68833 -61.957549,-19.34615 -98.944386,-53.30777 -102.314421,-93.94596 -2.3921,-28.84558 22.084601,-61.97593 61.184401,-82.8159 19.38961,-10.33456 57.70806,-22.03219 81.72349,-24.94806 14.69089,-1.78372 17.80693,-3.45498 31.42857,-16.85639 26.87471,-26.44024 54.1045,-34.87262 105.4721,-32.66209 49.48314,2.12945 80.86766,16.64136 93.81014,43.37698 3.49157,7.21263 6.91706,13.11388 7.61215,13.11388 0.69511,0 9.259,-2.71119 19.03085,-6.02487 41.98203,-14.23629 94.68009,6.19258 100.85289,39.09653 5.86211,31.24763 -19.18826,55.10484 -65.94303,62.80219 l -11.42857,1.88151 7.06871,4.69375 c 30.79335,20.44731 45.8726,40.43075 51.70375,68.51919 8.64217,41.62923 -11.50778,87.31036 -46.28646,104.93405 -7.55846,3.83017 -23.26549,8.38028 -34.90452,10.11137 l -21.16185,3.14743 1.44768,18.03508 c 1.18426,14.75329 0.29669,20.41269 -4.87768,31.10152 -7.61243,15.7252 -28.1216,34.49965 -42.51617,38.92002 -20.24909,6.21823 -19.551,5.73963 -13.40369,9.18946 3.10263,1.7412 17.98154,3.26186 33.0642,3.37929 24.98071,0.19457 28.48631,0.91703 39.362,8.11328 15.81866,10.46689 30.3026,30.71597 38.28854,53.52877 5.52535,15.7838 6.5012,24.36115 6.5012,57.14286 0,36.18403 -0.49043,39.6186 -7.92325,55.48969 -24.35895,52.01277 -59.77055,70.71677 -95.30223,50.33757 z m 44.08954,-517.03651 18.00691,-4.62246 -12.87537,-9.07541 c -15.3212,-10.79937 -27.42417,-28.78355 -27.42417,-40.75039 0,-4.74551 -1.24208,-8.6282 -2.7602,-8.6282 -4.40757,0 -22.95408,9.42602 -22.95408,11.66611 0,1.11998 3.19765,7.63185 7.10588,14.47082 3.90823,6.83897 8.58892,19.89557 10.40154,29.01466 2.6934,13.55022 4.13603,16.21167 7.89412,14.56375 2.52914,-1.10903 12.70157,-4.09652 22.60537,-6.63888 z"
       id="path164"
       transform="scale(0.26458333)" />
    <path
       style="fill:#a0a0a0;stroke:none;stroke-width:2.85714"
       d="m 163.37396,882.74469 c -21.04131,-7.50015 -40.5676,-32.21051 -50.38514,-63.76199 -21.641422,-69.55089 6.03602,-149.37978 56.63533,-163.35093 25.42968,-7.02147 55.46836,13.09503 71.5043,47.88546 17.49554,37.95705 18.76342,85.77217 3.36561,126.9265 -10.75979,28.7581 -41.74611,56.49587 -62.90514,56.31025 -3.92857,-0.0345 -12.1253,-1.83864 -18.21496,-4.00929 z"
       id="path166"
       transform="scale(0.26458333)" />
    <path
       style="fill:#a0a0a0;stroke:none;stroke-width:2.85714"
       d="m 563.62587,624.91515 c -9.2486,-21.54206 -11.20807,-34.52406 -12.63157,-83.6873 -1.08208,-37.37177 -0.35176,-56.30461 2.89159,-74.96237 4.79991,-27.61197 12.56279,-46.4662 19.1316,-46.4662 23.99722,0 31.42541,158.74208 9.5255,203.56205 -7.09537,14.52127 -13.13679,15.01751 -18.91712,1.55382 z"
       id="path168"
       transform="scale(0.26458333)" />
    <path
       style="fill:#a0a0a0;stroke:none;stroke-width:2.85714"
       d="m 567.92543,629.085 c -1.61403,-1.96429 -5.30717,-10.64286 -8.20699,-19.28572 -4.51677,-13.4622 -5.27238,-25.13211 -5.27238,-81.42857 0,-67.98659 2.66547,-87.59027 13.98526,-102.85714 3.76876,-5.08288 4.71507,-5.24073 8.56413,-1.42857 8.99533,8.90909 13.77623,37.12182 15.25129,90 1.54911,55.53253 -1.44874,85.56107 -10.6093,106.27004 -5.66144,12.79861 -8.75203,14.76628 -13.71201,8.72996 z"
       id="path170"
       transform="scale(0.26458333)" />
    <path
       style="fill:#a0a0a0;stroke:none;stroke-width:2.85714"
       d="m 567.92543,629.085 c -1.61403,-1.96429 -5.30717,-10.64286 -8.20699,-19.28572 -4.51677,-13.4622 -5.27238,-25.13211 -5.27238,-81.42857 0,-67.98659 2.66547,-87.59027 13.98526,-102.85714 3.76876,-5.08288 4.71507,-5.24073 8.56413,-1.42857 8.99533,8.90909 13.77623,37.12182 15.25129,90 1.54911,55.53253 -1.44874,85.56107 -10.6093,106.27004 -5.66144,12.79861 -8.75203,14.76628 -13.71201,8.72996 z"
       id="path172"
       transform="scale(0.26458333)" />
    <path
       style="fill:#a0a0a0;stroke:none;stroke-width:2.85714"
       d="m 567.92543,629.085 c -1.61403,-1.96429 -5.30717,-10.64286 -8.20699,-19.28572 -4.51677,-13.4622 -5.27238,-25.13211 -5.27238,-81.42857 0,-67.98659 2.66547,-87.59027 13.98526,-102.85714 3.76876,-5.08288 4.71507,-5.24073 8.56413,-1.42857 8.99533,8.90909 13.77623,37.12182 15.25129,90 1.54911,55.53253 -1.44874,85.56107 -10.6093,106.27004 -5.66144,12.79861 -8.75203,14.76628 -13.71201,8.72996 z"
       id="path174"
       transform="scale(0.26458333)" />
    <path
       style="fill:#a0a0a0;stroke:none;stroke-width:2.85714"
       d="M 33.017491,945.51357 V 866.94214 H 84.09622 c 44.10035,0 51.61445,0.64763 55,4.7404 5.21563,6.30511 30.74349,18.05374 39.30407,18.08883 13.05654,0.0534 29.32456,-6.76569 41.31114,-17.31669 39.39737,-34.67894 50.40806,-114.2596 23.83855,-172.29506 -25.67003,-56.07074 -81.98671,-65.01957 -115.50645,-18.35425 -31.467796,43.80868 -33.77385,124.28274 -4.83272,168.64694 3.82225,5.85917 6.94954,11.32346 6.94954,12.14286 0,0.8194 -21.85714,1.48983 -48.57143,1.48983 H 33.017491 V 734.13862 604.19228 l 65,-0.82431 64.999999,-0.82432 -64.999999,-0.65788 -65,-0.65792 v -210 -210 H 73.212045 113.4066 l -5.57079,7.85715 c -9.949253,14.03261 -14.818319,33.84478 -14.818319,60.29556 0,31.60841 6.000291,52.70473 18.563849,65.26828 11.33012,11.33012 18.15179,11.83085 29.62745,2.17472 13.39638,-11.27232 20.38013,-33.6314 20.38013,-65.2488 0,-28.66913 -4.35683,-47.83165 -13.93269,-61.2797 l -6.04505,-8.48949 19.80125,-1.98856 c 17.82331,-1.78993 21.74645,-1.17664 39.27459,6.13971 17.77653,7.42002 22.46079,8.12221 53.75904,8.05861 30.73572,-0.0625 36.23185,-0.87599 53.08132,-7.85714 18.60025,-7.70654 19.47728,-7.78748 84.38397,-7.78748 h 65.58837 l 5.04,8.53201 c 5.66237,9.58565 24.2638,21.33804 38.46103,24.29973 17.44423,3.63905 37.465,-3.6063 52.43551,-18.97596 l 13.49595,-13.85578 h 35.86877 35.86877 l 0.77714,120.71429 0.77714,120.71428 0.68246,-120.71428 0.68243,-120.71429 h 60 60 V 594.085 1009.7993 h -59.97229 -59.97231 l -0.77034,-136.42859 -0.77037,-136.42857 -0.68592,143.57143 -0.68591,143.57143 H 335.87463 33.017491 Z M 439.26043,985.3782 c 26.04852,-8.87563 48.93766,-40.42475 58.32849,-80.39675 6.1454,-26.15777 4.06931,-69.92114 -4.47109,-94.25005 -16.824,-47.92623 -57.1912,-76.18758 -91.65994,-64.17172 -5.91334,2.0614 -10.7126,2.21217 -13.76037,0.43226 -4.21683,-2.46269 -4.17114,-2.74177 0.46186,-2.82006 14.09677,-0.23828 38.56623,-19.73963 48.50654,-38.65831 4.43563,-8.442 6.02943,-16.76535 6.09886,-31.85043 l 0.094,-20.42189 17.22223,-1.10725 c 20.98742,-1.34935 41.23608,-10.63429 56.51785,-25.91606 12.63769,-12.63769 27.71286,-42.13614 28.10266,-54.99009 l 0.26,-8.57143 2.25109,8.57143 c 1.23811,4.71429 3.77285,17.68306 5.63277,28.81949 6.14548,36.79674 21.22131,49.39226 32.19103,26.8948 16.51117,-33.86223 18.48162,-143.49317 3.40282,-189.32395 -4.37717,-13.30382 -10.5172,-22.10462 -15.42174,-22.10462 -1.34694,0 -4.45548,2.00649 -6.90786,4.45887 -4.0404,4.0404 -4.29582,3.26947 -2.7218,-8.21438 5.94849,-43.39888 -43.92257,-75.61543 -98.11191,-63.37999 -10.67071,2.40935 -20.9572,4.67905 -22.85889,5.04378 -1.90168,0.36473 -6.40168,-5.12257 -10,-12.194 -7.49048,-14.72032 -27.75205,-28.48857 -53.68525,-36.48049 -24.52977,-7.55942 -81.18829,-6.82138 -107.31443,1.39788 -23.48957,7.38981 -42.08539,19.88894 -50.2974,33.80724 -5.01701,8.50321 -7.30518,9.8468 -16.76932,9.8468 -16.1224,0 -49.18897,7.5392 -70.89041,16.16306 -36.044358,14.32355 -61.516132,35.08153 -74.6581,60.84192 -29.78774,58.38879 26.681765,122.13682 123.10288,138.96999 52.13743,9.10215 120.84113,0.984 159.77683,-18.87951 6.1094,-3.11677 11.80209,-5.66689 12.6504,-5.66689 0.84832,0 1.58438,6.75 1.63569,15 0.0511,8.25 2.37691,21.60755 5.16806,29.68343 l 5.0748,14.68343 -15.88237,4.4216 c -32.31758,8.99709 -51.59663,34.61949 -51.59663,68.57331 0,23.53369 7.4307,40.91378 23.29971,54.49706 l 11.1684,9.55974 -13.5058,3.40078 c -9.41676,2.37117 -17.22963,7.12465 -25.80547,15.70051 -10.37816,10.37814 -12.2997,14.07786 -12.2997,23.68169 0,20.69194 20.37117,40.80248 45.659,45.07482 l 10.05529,1.69883 0.16,39.15526 c 0.18142,44.39877 4.62497,61.49737 22.91037,88.15889 20.78914,30.31214 48.5848,41.18594 78.88685,30.861 z"
       id="path176"
       transform="scale(0.26458333)" />
    <path
       style="fill:#a0a0a0;stroke:none;stroke-width:2.85714"
       d="m 544.89475,534.085 c -1.03801,-19.63231 -20.85971,-51.06938 -41.87726,-66.41701 -8.01972,-5.85624 -8.15962,-6.26493 -2.1735,-6.34962 12.1383,-0.17173 36.08671,-11.39009 47.29196,-22.15339 8.29496,-7.96779 10.82394,-9.29798 9.65815,-5.07998 -7.09798,25.6814 -8.64959,36.09934 -10.42553,70 -1.11135,21.21428 -2.22457,34.71428 -2.47382,30 z"
       id="path178"
       transform="scale(0.26458333)" />
    <path
       style="fill:#a0a0a0;stroke:none;stroke-width:2.85714"
       d="M 391.07066,975.54091 C 372.52003,964.90165 354.97258,941.1 347.25246,916.1052 c -4.39894,-14.24209 -5.66354,-26.51752 -5.66354,-54.97558 v -36.63914 l -15,-4.39031 c -8.25,-2.41466 -19.69073,-8.27749 -25.42384,-13.02849 -13.20652,-10.94417 -17.04775,-21.30671 -12.78022,-34.47734 4.081,-12.59494 27.36811,-27.17049 47.92755,-29.99812 l 14.3618,-1.97525 -9.54263,-5.70215 C 315.17176,719.40671 304.44606,701.6208 304.44606,674.085 c 0,-21.02638 5.63178,-35.10066 19.02405,-47.5428 9.94124,-9.23595 30.08492,-19.60006 38.09467,-19.60006 8.42545,0 9.56588,-5.70912 4.64165,-23.23654 -2.36954,-8.43419 -5.16882,-22.72775 -6.22065,-31.76346 -1.05183,-9.03572 -2.86892,-16.42857 -4.03797,-16.42857 -1.16906,0 -11.62806,4.33925 -23.24223,9.64278 -33.20441,15.16256 -46.87021,17.49437 -102.54523,17.49737 -44.43269,0.002 -52.38599,-0.74232 -71.42857,-6.68833 C 96.774231,536.61924 59.787394,502.65762 56.417359,462.01943 52.472856,414.4539 112.46191,367.81805 193.83103,355.1932 c 19.00282,-2.94839 21.77271,-4.31568 36.65464,-18.09372 28.75573,-26.62274 54.68794,-34.55945 105.74025,-32.36249 49.48314,2.12945 80.86766,16.64136 93.81014,43.37698 3.49157,7.21263 6.91706,13.11388 7.61215,13.11388 0.69511,0 9.259,-2.71119 19.03085,-6.02487 46.84312,-15.8847 102.05272,9.78717 102.05272,47.45344 0,13.63728 -5.92566,24.43292 -20.04469,36.51826 -10.87528,9.30885 -19.39883,12.65768 -46.71723,18.35485 l -11.04765,2.30394 14.43842,9.35579 c 17.91263,11.60698 27.87472,23.20455 37.3374,43.46716 6.07198,13.00203 7.3386,19.90596 7.3386,40 0,27.70136 -7.15905,47.34106 -24.42491,67.0058 -10.33129,11.76666 -39.34674,27.25335 -51.16566,27.30912 -3.92857,0.0171 -11.8048,0.80474 -17.50274,1.74714 l -10.35989,1.71346 1.44598,18.0136 c 1.18234,14.72977 0.29285,20.39554 -4.87943,31.08006 -8.21572,16.97142 -28.26863,34.43517 -46.48997,40.48731 -20.00235,6.64371 -12.78523,9.94663 23.28711,10.65729 26.48714,0.52182 29.09997,1.11611 40.66617,9.24954 15.67954,11.02597 31.41869,33.46574 38.40054,54.74886 4.2522,12.96214 5.43223,24.93797 5.43223,55.13068 0,36.18403 -0.49043,39.6186 -7.92325,55.48969 -24.40306,52.10697 -59.76112,70.72165 -95.45215,50.25194 z m 44.43469,-516.99847 18.20211,-4.67006 -11.79554,-7.80592 c -15.96983,-10.56834 -28.89443,-28.89957 -28.89443,-40.98157 0,-5.75799 -1.42291,-9.56707 -3.57143,-9.56064 -3.70071,0.0111 -22.14285,10.43264 -22.14285,12.51283 0,0.64841 3.19765,6.77445 7.10588,13.61342 3.90823,6.83897 8.58892,19.89557 10.40154,29.01466 2.6934,13.55022 4.13603,16.21167 7.89412,14.56375 2.52914,-1.10903 12.78943,-4.11794 22.8006,-6.68647 z"
       id="path180"
       transform="scale(0.26458333)" />
    <path
       style="fill:#a0a0a0;stroke:none;stroke-width:2.85714"
       d=""
       id="path182"
       transform="scale(0.26458333)" />
    <path
       style="fill:#a0a0a0;stroke:none;stroke-width:2.85714"
       d="m 410.0976,451.67946 c -0.0664,-9.54216 -8.93368,-31.59988 -15.71617,-39.09445 -3.54547,-3.91771 -3.03608,-4.83737 4.19014,-7.56497 8.11666,-3.06369 8.27061,-2.92902 11.55286,10.10597 2.34429,9.31002 6.94419,16.67732 15.57784,24.94981 l 12.25126,11.73877 -13.89659,4.44395 -13.89659,4.44396 z"
       id="path184"
       transform="scale(0.26458333)" />
    <path
       style="fill:#a0a0a0;stroke:none;stroke-width:2.85714"
       d="m 494.44606,206.35199 c -24.41543,-8.53447 -41.25809,-31.94567 -43.55327,-60.5388 -6.16138,-76.757812 83.79864,-107.404299 113.38588,-38.62692 12.52864,29.12362 7.09142,61.21964 -14.06439,83.02229 -17.23781,17.76486 -35.7769,23.13144 -55.76822,16.14343 z"
       id="path186"
       transform="scale(0.26458333)" />
    <path
       style="fill:#a0a0a0;stroke:none;stroke-width:2.85714"
       d="m 218.73178,188.77061 c -42.31761,-11.52023 -71.35285,-41.96833 -71.41264,-74.88757 -0.0268,-14.774704 14.1342,-38.624638 29.98407,-50.498999 46.89378,-35.131763 123.81172,-30.811099 163.59666,9.189615 13.96218,14.037897 22.38531,36.974064 19.19693,52.273194 -6.13328,29.42993 -33.28878,53.75465 -71.36502,63.92571 -17.58077,4.69623 -52.74564,4.69525 -70,-0.002 z"
       id="path188"
       transform="scale(0.26458333)" />
    <path
       style="fill:#a0a0a0;stroke:none;stroke-width:0.755952"
       d="m 29.610547,83.713056 c -6.024512,-6.449261 -6.232042,-25.549566 -0.35351,-32.535804 5.741619,-6.823525 12.387376,1.90391 12.387376,16.267525 0,7.297021 -1.640819,13.103582 -4.597088,16.268279 -2.607304,2.791127 -4.829474,2.791127 -7.436778,0 z"
       id="path190" />
    <path
       style="fill:none;stroke:#000000;stroke-width:0.264583px;stroke-linecap:butt;stroke-linejoin:miter;stroke-opacity:1"
       d="m 185.88621,133.97235 c -88.992942,24.935 -116.295428,-11.37427 -96.905209,16.54231 19.390219,27.91658 33.563139,82.75837 28.055219,9.02403 C 111.52831,85.804355 141.34134,59.11561 92.236524,109.26931 43.13171,159.423 79.050223,178.14059 79.050223,150.51466 c 0,-27.62592 -263.474363,117.42218 6.939267,-42.48787 C 356.40311,-51.883275 -235.17852,-376.12362 -14.547331,-2.7305688 206.08386,370.66249 20.88563,20.753347 67.531868,308.22191 114.17811,595.69048 168.60086,-376.88221 80.721125,-16.097462 -7.1586161,344.68728 66.478845,190.41708 108.37122,178.43124 150.2636,166.4454 187.71229,100.12553 150.2636,166.4454 112.81491,232.76527 119.84919,268.80161 108.37123,213.85447 96.893268,158.90735 84.083225,167.30003 96.893268,158.90735 c 12.810042,-8.39269 4.723442,-35.65714 20.142952,-8.39269 15.41951,27.26445 38.90746,-8.81091 15.41951,27.26445 -23.48794,36.07536 16.24692,62.48607 -24.08449,17.61081 C 68.039826,150.51466 100.28481,9.6806577 89.667513,103.42353 79.050223,197.16639 75.764349,243.97182 68.039826,172.61335 60.3153,101.25489 6.4440992,67.998366 42.747162,122.88874 c 36.303061,54.89037 31.263053,-91.978054 48.44356,-21.12673 17.180508,70.85133 19.844658,-14.587161 18.512588,48.75265 -1.33208,63.33981 1e-5,9.65366 0,27.26445 -1e-5,17.61079 25.26876,-55.72666 7.33291,-18.24042 -17.935838,37.48625 -17.71208,-20.15524 -20.142952,-0.63134 -2.430876,19.52389 4.350322,-29.99176 11.477952,-8.39269 7.12763,21.59907 13.66104,-102.576042 18.87278,-28.85039 5.21173,73.72565 -14.13196,-19.68142 5.21173,56.11484 19.3437,75.79626 36.90501,17.20349 36.90501,17.20349 0,0 22.62846,-75.10841 -2.24257,-28.95361 -24.87104,46.15481 -19.24293,-7.63716 -34.66244,11.75012 -15.41951,19.38728 7.15432,-55.86812 -15.41951,-18.24042 -22.573828,37.6277 5.24383,-31.12271 -8.665,-9.02403 -13.908828,22.09868 -80.672817,28.26662 -19.390219,22.09868 61.282599,-6.16794 -24.607102,-4.05061 28.055219,-13.07465 52.66233,-9.02403 -67.328151,9.02404 -7.33291,0 59.99524,-9.02403 -22.75243,0 0,0 22.75242,0 -48.777529,36.48084 -20.722309,18.24042 28.055219,-18.24042 -20.125359,-41.08502 -9.930778,0 10.194584,41.08502 -22.020797,44.55886 -11.010397,-5.16576 C 79.050223,122.88874 94.795894,14.209854 79.050223,122.88874 63.304554,231.56762 27.416286,222.68156 58.198644,197.64745 88.981001,172.61334 135.21484,105.6394 88.981001,150.51466 42.747162,195.38992 -48.621759,-136.89174 29.610547,83.713054 107.84285,304.31785 278.07729,303.62456 142.09713,256.43091 6.1169668,209.23727 108.50499,119.50685 108.50499,119.50685"
       id="path192" />
    <path
       style="fill:#000000;fill-opacity:1;fill-rule:nonzero;stroke:none;stroke-width:0.264583"
       id="path194"
       d="m 68.490414,98.721459 c 3.256486,5.384211 5.263348,11.415561 7.366426,17.309651 3.49894,9.80615 2.529824,7.09144 6.127379,17.60807 3.026677,9.57933 6.22105,19.10258 9.624436,28.55459 1.817103,5.04653 3.775959,10.48796 5.924256,15.42833 0.832678,1.91489 1.787184,3.77446 2.680779,5.66169 2.09701,3.8287 6.08423,11.76287 11.57977,11.3974 1.19869,-0.0797 2.32664,-0.59966 3.48995,-0.89949 4.22595,-2.43069 8.67055,-4.51565 12.67784,-7.29207 2.79251,-1.93476 6.41137,-7.90253 7.85011,-10.42669 3.41607,-5.99323 5.18168,-10.08426 7.1356,-16.82962 0.98725,-3.40818 1.61658,-6.91 2.42487,-10.365 2.06944,-9.46988 2.45173,-19.15785 1.94768,-28.80814 -0.19922,-3.81428 -0.68156,-8.73974 -1.59768,-12.55083 -0.3282,-1.36533 -0.87199,-2.66964 -1.30799,-4.00447 -0.57066,-0.86491 -0.83311,-2.04582 -1.71199,-2.59475 -0.82866,-0.51756 -2.07898,-0.79963 -2.91607,-0.29581 -4.71403,2.83726 -9.32211,6.02223 -13.15558,9.96896 -2.24544,2.31178 -3.36485,5.51371 -4.72201,8.43679 -5.5188,11.8865 -7.3625,19.37307 -11.46805,32.31126 -6.21388,19.13374 -9.67663,38.94281 -11.523617,58.9338 -0.719145,7.78373 -1.278784,18.96647 -1.142222,27.0573 0.04927,2.91898 0.348231,5.8284 0.522348,8.7426 0.454734,2.54409 0.522933,7.65697 3.401911,9.51656 1.16063,0.74967 2.71673,0.88698 4.08563,0.6994 5.9706,-0.81813 18.68751,-11.6999 19.40863,-12.40314 2.67644,-2.6101 4.02038,-6.304 6.03056,-9.456 5.20256,-10.65591 8.17704,-15.29507 10.82399,-27.42059 1.30075,-5.95865 1.99661,-12.05494 2.37425,-18.14221 0.76094,-12.26566 0.0321,-23.85657 -2.94218,-35.79943 -1.27217,-5.10821 -3.46492,-9.94198 -5.19739,-14.91297 -2.11029,-3.97402 -3.75566,-8.23228 -6.33087,-11.92206 -4.14857,-5.94408 -9.1143,-10.60317 -16.52869,-11.7997 -2.97146,-0.47953 -6.27284,-0.514 -8.99721,0.76561 -17.422748,8.18328 -16.54589,10.60388 -25.873783,24.8233 -2.655896,5.45332 -5.671873,10.74554 -7.967687,16.35997 -4.933624,12.0652 -7.669307,22.90959 -10.031878,35.65677 -1.309872,7.06737 -2.993022,19.80571 -2.908903,27.42782 0.03146,2.85069 0.64892,5.66468 0.973381,8.49702 0.915194,1.53124 1.084313,3.94375 2.745581,4.59372 2.006677,0.78511 4.508942,0.0412 6.383068,-1.02215 6.308876,-3.5797 12.183152,-7.9477 17.708372,-12.6475 4.181017,-3.55641 7.707783,-7.82987 11.272456,-12.00385 11.828873,-13.85077 15.415723,-19.95135 25.943903,-35.23382 9.94927,-15.25377 20.01595,-30.64502 27.46262,-47.3334 1.31151,-2.93917 2.64187,-5.91306 3.37136,-9.0478 0.33175,-1.42559 0.97967,-3.5835 -0.2456,-4.38418 -1.44983,-0.94743 -3.41419,0.5847 -5.12128,0.87705 -5.18383,3.62046 -10.73583,6.76391 -15.55149,10.86138 -3.25245,2.7674 -16.53725,19.28816 -18.59687,21.83953 -6.37967,7.90292 -11.52701,14.37592 -17.495453,22.49379 -2.103368,2.86086 -4.105515,5.79478 -6.158272,8.69216 -3.032318,4.43763 -5.738151,9.08399 -7.882797,14.0124 -0.147659,0.33932 -0.739521,1.19071 -0.404307,1.03394 10.857275,-5.07758 10.132832,-1.91489 10.236305,-7.92957 -0.09099,-1.11706 -0.09472,-2.24468 -0.27297,-3.35117 -0.785582,-4.87651 -2.821937,-11.74294 -7.098445,-14.69538 -1.152618,-0.79575 -2.537603,-1.18641 -3.806405,-1.77961 -3.885972,-1.36645 -7.544083,-0.89987 -10.978123,-3.4666 -4.438499,-3.31751 -6.35381,-8.84498 -8.513826,-13.67701 -2.203791,-6.04859 -4.187396,-12.17757 -6.06996,-18.33309 -0.729194,-2.38427 -1.981956,-6.57802 -2.531964,-9.10141 -0.290256,-1.33167 -0.470194,-2.68501 -0.705292,-4.02752 -0.604033,-4.65106 -0.07294,-9.57229 2.695625,-13.53281 1.977335,-2.828642 4.041561,-4.132461 6.735398,-6.296962 1.545772,-0.936921 3.177516,-3.876701 4.637317,-2.810766 1.421535,1.037994 -4.006691,1.315053 -4.311584,3.048613 -0.214759,1.221084 2.607911,0.0571 3.646186,0.734709 1.326476,0.86569 2.548813,2.138449 3.05571,3.639118 2.847586,8.430268 0.341617,16.741548 -0.753472,25.223388 -4.911061,18.10613 -5.713532,23.84871 -13.948585,41.61268 -3.47337,7.49247 -7.548287,14.70015 -11.711823,21.83222 -4.991788,8.55085 -16.593396,26.54835 -23.751461,34.38014 -2.942805,3.21978 -6.696348,5.59171 -10.044522,8.38757 0.1947989,-1.05669 0.955776,-2.16179 0.5843963,-3.17006 -0.9315172,-2.52901 -3.618276,-4.24739 -4.2789025,-6.86028 C 2.1401799,209.75036 3.63362,193.13611 5.2578132,182.96686 9.0970464,158.92898 12.469165,152.60992 20.550279,129.12117 c 9.580907,-21.7761 11.52723,-28.0337 23.251809,-47.987422 6.283473,-10.693665 12.156699,-19.431386 20.767042,-28.155101 0.23227,-0.235328 0.3859,0.570744 0.679664,0.722511 2.705294,1.39764 5.508022,2.598031 8.262033,3.897048 3.029865,3.084311 6.266429,5.978366 9.089596,9.252932 3.918609,4.54516 7.420385,9.433726 11.104978,14.170575 5.585375,7.180461 19.697019,25.695077 25.647209,32.696657 11.87591,13.97437 12.48271,13.78014 25.56797,25.61385 3.8734,2.83836 7.51593,6.0222 11.62021,8.51507 3.50098,2.12643 7.22853,3.93071 11.09539,5.28198 8.55245,2.98863 19.59483,3.63561 28.29739,0.73138 2.36175,-0.78817 4.44896,-2.23675 6.67343,-3.35512 4.50983,-3.11581 9.31698,-5.84006 13.52948,-9.34743 3.24103,-2.69852 8.86231,-13.34731 1.69157,-15.36808 -1.87793,-0.52921 -3.90129,-0.0817 -5.85193,-0.12254 -2.47196,0.57695 -4.98915,0.98623 -7.41588,1.73086 -7.01976,2.154 -14.82286,5.64034 -21.42768,8.59992 -7.84436,3.515 -16.18029,7.44107 -23.76822,11.48071 -3.81501,2.03102 -7.53315,4.23899 -11.29973,6.35848 -5.87634,3.5182 -11.75267,7.0364 -17.62901,10.55459 0,0 8.38584,-3.2465 8.38584,-3.2465 v 0 c 0.81215,-0.60213 1.62429,-1.20426 2.43644,-1.8064 3.7722,-2.14165 7.49327,-4.37597 11.31659,-6.42495 7.33583,-3.93139 16.00887,-8.04429 23.61764,-11.42941 6.58288,-2.9287 13.59378,-5.97502 20.5238,-8.10263 2.28742,-0.70228 4.65107,-1.1267 6.97661,-1.69005 1.71964,-0.0589 3.46481,-0.47777 5.15893,-0.17676 2.91608,0.51812 3.25873,2.27407 2.82628,4.84568 -0.23724,1.41075 -0.7364,2.79679 -1.43747,4.04378 -0.92102,1.63823 -3.39229,2.63707 -3.37508,4.51637 0.0105,1.15322 2.2741,-0.38547 3.41115,-0.5782 -2.218,1.22691 -4.27943,2.79401 -6.65398,3.68074 -2.66122,0.99378 -5.48582,1.56748 -8.3063,1.90589 -11.09783,1.33156 -21.91403,-1.18833 -31.64003,-6.62461 -4.22709,-2.36271 -8.01454,-5.43784 -12.02181,-8.15676 -13.09099,-11.29035 -14.34467,-11.58137 -26.0875,-25.14342 C 116.68573,99.747987 108.25663,88.085614 100.37721,77.067936 96.887177,72.187884 93.72652,67.069104 90.068163,62.313933 87.393091,58.836845 84.292248,55.709129 81.404292,52.406727 78.500429,50.86342 75.941051,47.26451 72.692704,47.776809 60.989545,49.622516 54.082029,58.450273 48.071174,67.225788 44.420162,72.556065 41.09894,78.114842 37.96099,83.762404 26.858322,103.74456 24.972547,109.73748 15.644431,131.41574 c -3.363454,9.40412 -7.1836324,18.65719 -10.0903612,28.21236 -4.77904562,15.70995 -8.297184,32.14302 -9.3315019,48.58106 -0.3586083,5.69923 -0.805457,11.53133 0.3271303,17.12838 0.6132539,3.03061 1.6722478,7.68108 4.7510234,7.96702 5.5121965,0.51195 10.3003804,-4.06051 15.4505704,-6.09077 2.941488,-2.68973 6.238095,-5.03642 8.824463,-8.06918 6.841622,-8.02247 17.692224,-25.46153 22.603139,-33.98473 4.152328,-7.20662 8.267184,-14.45339 11.834236,-21.96694 8.83377,-18.60722 9.570534,-23.50058 15.219888,-42.39886 1.052471,-5.58782 2.653679,-11.09975 3.157414,-16.76347 0.452315,-5.08557 0.582593,-11.152802 -4.011952,-14.549102 -1.169892,-0.864785 -2.823202,-1.643335 -4.20208,-1.179436 -5.320554,1.790002 -12.626261,6.620447 -18.003004,10.047883 -2.961487,2.499665 -4.758955,3.597845 -6.835264,6.829115 -2.694234,4.1929 -3.110651,9.31156 -2.313869,14.09206 0.265142,1.36021 0.466886,2.73433 0.795425,4.08064 0.638823,2.61782 1.982827,6.51339 2.821747,8.99991 1.336966,3.96269 2.639711,7.93693 3.989369,11.89532 0.73403,2.15283 1.508204,4.29176 2.262306,6.43764 2.102654,5.13708 3.884716,10.89811 8.390623,14.54337 1.057825,0.85577 2.246974,1.58915 3.522797,2.06203 2.396919,0.8884 5.182344,0.31531 7.526089,1.47249 1.193146,0.49717 2.488396,0.7984 3.579439,1.4915 4.250741,2.70037 6.132698,9.33058 6.609993,14.0419 0.111331,1.09892 0.02265,2.20898 0.03398,3.31347 -0.872903,5.71622 -1.229802,3.51558 9.566775,-1.69903 0.24057,-0.11619 0.05489,-0.53465 0.131284,-0.79066 0.239826,-0.80375 0.489645,-1.60756 0.814988,-2.38066 0.621035,-1.47574 1.267148,-2.94486 2.020654,-4.35756 1.16835,-2.19045 2.492751,-4.29403 3.739126,-6.44104 1.892932,-2.81608 3.719592,-5.67786 5.678792,-8.44823 5.47906,-7.74752 11.0184,-14.8906 17.04222,-22.25174 3.34798,-4.09126 6.70049,-8.18319 10.22577,-12.1227 3.0957,-3.45947 6.85549,-6.33955 9.6275,-10.06342 0.34205,-0.45951 -0.96749,-0.61363 -1.45123,-0.92044 1.32808,-0.77509 2.48678,-2.67476 3.98425,-2.32527 1.17428,0.27406 1.13396,2.28756 0.97683,3.48311 -0.38785,2.9509 -1.47732,5.78151 -2.55894,8.55429 -6.46384,16.57023 -16.28419,31.60973 -25.85555,46.48067 -11.36093,16.11401 -14.19601,21.17515 -27.142799,35.61727 -3.834754,4.27766 -8.330054,7.93535 -12.123264,12.2499 -2.338273,2.65965 -0.214413,6.66101 -6.978695,5.12833 -1.613646,-0.36563 -2.054868,-2.59378 -3.082303,-3.89066 -0.516411,-2.66618 -1.368438,-5.28884 -1.549236,-7.99855 -0.49049,-7.35116 0.790237,-19.97703 1.936054,-26.78465 2.164734,-12.86129 4.883949,-23.36463 10.031966,-35.44522 2.410341,-5.65624 5.593966,-10.95073 8.39095,-16.4261 3.237519,-4.47675 6.611049,-8.85823 9.712558,-13.43026 0.500949,-0.73846 0.227277,-2.14722 1.064366,-2.45633 10.555353,-3.89787 19.364403,1.30852 25.680953,9.65248 2.68805,3.55082 4.43862,7.72233 6.65793,11.58349 1.8146,4.87162 4.1174,9.58832 5.44378,14.61487 4.53687,17.19327 4.42476,36.4597 0.17854,53.69777 -2.95449,11.99413 -6.331,17.10939 -11.79797,27.61054 -2.25159,3.17573 -4.50318,6.35146 -6.75477,9.52718 0.90663,0.12078 3.24138,-0.38909 2.71991,0.36234 -0.95191,1.37172 -2.8902,1.75561 -4.49918,2.20162 -6.13181,1.69971 -6.52489,-4.29432 -7.55409,-8.52282 -0.34304,-2.799 -0.82576,-5.5844 -1.02912,-8.397 -0.5821,-8.05106 -0.51653,-18.53463 -0.002,-26.37222 0.89071,-13.57742 2.37293,-24.96117 5.52591,-38.30522 1.62271,-6.86765 3.87591,-13.57087 5.81387,-20.35631 5.10146,-14.27802 6.54312,-20.18246 13.32988,-32.96414 1.58537,-2.98579 5.18687,-5.18942 5.43783,-8.56068 0.11981,-1.60941 -3.22457,0.55073 -4.82776,0.36545 -1.46315,-0.1691 7.3372,-2.13539 4.12943,1.57239 0.48982,1.24879 1.08678,2.4607 1.46947,3.74637 2.69083,9.03996 2.94566,21.14277 1.98132,30.3923 -0.35403,3.39574 -1.06671,6.74446 -1.60007,10.11669 -0.87207,3.44625 -1.54988,6.94757 -2.6162,10.33875 -1.95742,6.22508 -4.23865,11.29153 -7.64385,16.80484 -1.34404,2.17614 -2.79018,4.30328 -4.43717,6.26018 -1.24863,1.48359 -5.76574,2.85659 -4.21021,4.01437 1.68983,1.25774 3.70314,-2.00911 5.5547,-3.01366 -2.11031,0.79603 -3.21169,1.67835 -5.44625,1.03898 -0.79257,-0.22677 -1.49748,-0.70862 -2.17225,-1.18219 -3.16155,-2.21888 -5.12549,-5.61435 -7.10022,-8.83088 -0.96409,-1.82269 -2.00067,-3.60885 -2.89227,-5.46808 -6.71216,-13.99666 -11.034107,-28.99818 -15.93555,-43.6762 -1.671807,-5.3713 -3.8667,-12.46591 -5.608463,-17.9094 -1.72801,-5.40051 -3.389389,-10.88285 -5.525823,-16.142284 -0.262932,-0.647282 -0.586743,-1.268132 -0.880115,-1.902195 0,0 -9.657511,5.533678 -9.657511,5.533678 z" />
    <path
       style="fill:#000000;fill-opacity:1;fill-rule:nonzero;stroke:none;stroke-width:0.264583"
       id="path196"
       d="m -336.01678,-26.099822 c -0.54324,1.645579 -1.07625,3.294578 -1.62973,4.936736 -3.02093,8.962762 -3.95631,11.077307 -6.72412,21.33726101 -2.73108,10.12374699 -6.96198,28.28246899 -8.97453,38.28317299 -1.41637,7.038227 -2.56874,14.127012 -3.8531,21.190519 -2.71619,17.015595 -4.68273,34.133792 -6.66224,51.245793 -0.34486,2.98116 -0.58822,5.97582 -1.03478,8.94345 -0.17442,1.15905 -1.94308,3.77088 -0.82535,3.41807 3.6271,-1.14488 6.39279,-4.1229 9.58917,-6.18435 -0.25382,-1.82811 -0.56933,-3.64871 -0.7615,-5.48433 -0.95504,-9.1225 -0.80412,-11.07371 -1.40835,-20.730767 -1.24881,-19.958804 -0.66792,-7.038269 -1.88794,-28.244763 -0.28905,-5.024739 -0.50982,-10.053174 -0.76475,-15.07976 -1.12821,-26.105821 -1.91119,-52.2534115 -1.44052,-78.384489 0.35853,-7.407786 0.29363,-9.316879 1.2029,-16.422034 0.5153,-4.02672 1.12548,-7.997862 2.55982,-11.820718 1.74688,-4.655814 2.55606,-5.139748 5.5151,-9.048083 2.88089,-3.230777 6.16183,-6.062993 9.80282,-8.403092 0.84682,-0.544262 3.46614,-2.048148 2.61408,-1.512121 -6.95677,4.376489 -9.48174,5.136216 -4.48974,3.297965 7.75756,-2.371013 15.2133,0.91063 22.26694,3.961633 4.67746,2.546929 7.54975,3.912756 11.90654,7.141191 6.3428,4.70008 12.11162,10.467655 16.52984,17.024763 1.61652,2.39908 2.9229,4.993148 4.38433,7.489722 3.36862,6.739863 6.27637,13.780895 7.16325,21.328796 0.40352,3.434016 0.40463,6.359845 -0.84484,9.586548 -0.42071,1.086473 -1.18652,2.0054588 -1.77977,3.0081883 -7.51039,5.14136154 2.14341,-0.9870625 2.78754,-1.91141 0.64958,-0.9321763 -2.21046,0.5336061 -3.32986,0.728204 -0.72065,0.1252786 -1.45423,0.1594569 -2.18228,0.2300353 -4.35798,0.4224732 2.56524,-2.9171167 -8.50882,7.4953979 1.33702,1.0687676 2.81673,1.9801813 4.01111,3.2063028 4.29837,4.4125908 8.17761,10.1688827 11.21172,15.4284097 5.15292,8.932432 8.10297,15.680871 11.54679,25.565492 1.71823,4.931796 3.04445,9.99155 4.56668,14.987323 1.20456,5.308859 2.585,10.580851 3.61368,15.926572 2.17747,11.315608 3.50118,22.29199 4.5618,33.754834 1.04757,11.32164 1.64617,21.4459 1.82488,32.80181 0.0771,4.89978 -0.0573,9.8006 -0.0859,14.7009 -0.65257,17.24972 -2.36375,34.62234 -7.28779,51.22476 -0.81167,1.83761 -1.45248,3.78958 -2.85151,5.30408 -0.50856,0.55055 -2.44073,1.73369 -1.79253,1.3574 11.58827,-6.72707 7.87081,-4.39215 2.76053,-3.2871 -2.49047,0.36782 -1.28527,0.22242 -3.614,0.4493 0,0 -8.83562,6.54542 -8.83562,6.54542 v 0 c 2.42652,-0.21517 1.17125,-0.0793 3.76457,-0.4189 7.00151,-1.29058 7.65339,-2.25934 16.01093,-7.39155 0.6493,-0.39873 1.15246,-1.01527 1.60232,-1.63025 1.21437,-1.66008 1.70735,-3.52588 2.40015,-5.43362 3.93998,-16.52732 4.9252,-33.61283 5.34579,-50.54586 -0.064,-4.86379 -0.0529,-9.72916 -0.19211,-14.59138 -0.47459,-16.57223 -1.71337,-33.08647 -3.90666,-49.522809 -0.76433,-5.727832 -1.54314,-11.458268 -2.5903,-17.1412 -0.99218,-5.384565 -2.34958,-10.695387 -3.52437,-16.043079 -1.50343,-5.02779 -2.86499,-10.100199 -4.51028,-15.083367 -1.59918,-4.843523 -3.2641,-9.67337 -5.21913,-14.38453 -3.96238,-9.54853 -9.5476,-19.8543994 -16.00976,-28.01624328 -1.02026,-1.28861792 -2.27872,-2.36923642 -3.4181,-3.55385492 -3.40828,1.7689108 -6.78875,3.5925189 -10.2249,5.3067322 -0.24169,0.12058211 0.36304,-0.44719424 0.62397,-0.51703477 2.10423,-0.56321457 3.78523,0.0226817 5.90928,-0.9276227 11.58584,-5.18359223 9.68886,-3.84946463 15.24397,-8.97675143 0.50276,-1.0732121 1.17711,-2.0817101 1.50823,-3.2196381 0.97033,-3.334417 0.78325,-6.313035 0.23342,-9.736302 -1.21468,-7.562667 -4.20212,-14.62877 -7.67017,-21.404407 -3.72528,-6.500252 -4.55856,-8.688798 -9.42229,-14.340213 -1.70693,-1.983364 -3.61005,-3.79335 -5.52397,-5.577819 -5.33839,-4.977373 -11.23645,-9.182126 -17.708,-12.564361 -6.95921,-3.269377 -14.31865,-7.002738 -22.19286,-4.993809 -6.52036,2.110419 -2.36281,0.594611 -14.09096,7.232816 -4.54779,2.574068 -8.43254,6.174285 -11.81659,10.120381 -2.87414,4.072308 -3.67681,4.588455 -5.29793,9.366798 -1.34038,3.95083 -1.75012,7.669503 -2.14255,11.810053 -0.69061,7.286624 -0.56425,8.660164 -0.71083,16.262627 0.24869,26.00589583 1.26352,51.995417 2.33821,77.97846 1.1708,23.600063 2.53423,47.212601 2.39268,70.850904 3.27625,-1.23607 6.94626,-1.72001 9.82874,-3.70822 0.81023,-0.55886 -0.18727,-1.9631 -0.17963,-2.94734 0.022,-2.85026 0.12983,-5.69985 0.26871,-8.54682 0.82384,-16.888606 2.42906,-33.741729 5.1815,-50.432875 1.33657,-7.07766 2.51359,-14.187324 4.00973,-21.232982 4.79219,-22.567741 11.11136,-44.9751935 20.86324,-65.939375 0,0 -10.024,4.50641 -10.024,4.50641 z" />
    <path
       style="fill:#000000;fill-opacity:1;fill-rule:nonzero;stroke:none;stroke-width:0.264583"
       id="path198"
       d="m -225.84681,125.18167 c 6.51968,-3.48319 13.92143,-4.77137 21.09039,-6.19617 3.35828,-0.66744 6.72691,-1.28175 10.09036,-1.92263 13.64858,-2.47331 27.35945,-4.58344 41.02304,-6.96894 9.32881,-1.6287 18.61557,-3.47362 27.93384,-5.15827 3.76861,-0.48416 7.56436,-0.51877 8.89104,-6.410352 0.41384,-1.837794 -3.67448,0.83362 -5.50318,1.285951 -2.83222,0.700561 -5.66222,1.411611 -8.47882,2.172531 -8.29895,2.24199 -11.75107,3.34239 -19.94111,5.80542 -8.55949,3.05177 -17.75888,4.98599 -25.73669,9.52293 -11.69264,6.64953 -8.72044,3.74129 -13.19477,8.58266 -0.15405,0.49366 -0.4193,0.96562 -0.46215,1.48098 -0.10047,1.20827 0.83098,2.68655 2.07846,2.91724 1.61961,0.29949 2.72516,-0.40541 4.1773,-0.97536 3.8556,-2.36979 7.86338,-4.50819 11.56682,-7.10937 0.94868,-0.66632 1.56789,-1.71092 2.2864,-2.62072 2.93084,-3.71112 4.68636,-7.95366 6.52488,-12.26346 0.83407,-2.15216 1.78059,-4.28217 2.20813,-6.56498 0.10933,-0.58373 0.34611,-1.638843 -0.11098,-2.229735 -0.21995,-0.284326 -0.5857,-0.416933 -0.87854,-0.625398 -3.33321,2.577433 -7.18371,4.597943 -9.99962,7.732283 -0.88959,0.99019 -0.35511,2.6386 -0.50583,3.96114 -0.19949,1.75057 -0.4229,3.49989 -0.54471,5.25758 -0.35647,5.14377 -0.40424,9.03613 0.0284,14.23773 0.21627,2.60045 0.64635,5.17869 0.96953,7.76803 1.70082,9.53318 4.7305,18.85304 9.45678,27.32878 2.22307,3.98665 3.19011,5.12824 5.74593,8.66462 3.69483,4.17595 7.69539,7.53561 13.46636,7.93677 0.7275,0.0506 1.45836,-0.0207 2.18754,-0.0311 2.40522,-0.39239 1.26223,-0.11719 3.43665,-0.79302 0,0 8.67609,-6.78124 8.67609,-6.78124 v 0 c -2.08842,0.88491 -0.98392,0.50337 -3.32405,1.11356 -0.7126,0.0703 -1.42178,0.20362 -2.1378,0.21087 -5.62827,0.057 -9.6238,-3.08026 -13.35583,-6.97153 -2.71582,-3.43069 -3.63997,-4.37733 -5.96536,-8.33684 -4.8578,-8.27156 -7.89672,-17.45973 -9.51967,-26.88839 -0.29794,-2.56833 -0.72534,-5.12493 -0.89382,-7.70499 -0.34074,-5.21815 -0.13233,-9.1659 0.44478,-14.30289 0.20022,-1.78225 0.47011,-3.55773 0.80043,-5.3205 0.25156,-1.34243 2.3095,-3.98154 0.94371,-3.98724 -3.18194,-0.0133 -5.79207,2.63663 -8.6881,3.95494 -0.0523,-0.33433 -0.15516,-0.6646 -0.15683,-1.00299 -5.3e-4,-0.13009 0.15126,0.22869 0.15365,0.35876 0.007,0.40261 -0.0522,0.80549 -0.12497,1.20153 -0.39997,2.17704 -1.27914,4.22672 -2.04108,6.29071 -1.77422,4.2317 -3.56543,8.3917 -6.61443,11.89594 -0.7677,0.88231 -3.60255,2.78002 -2.46873,2.49316 2.53701,-0.64187 4.64089,-2.41987 6.96134,-3.62981 -0.44767,0.22524 -2.71342,1.44527 -3.45195,1.56696 -1.59216,0.26235 -1.44055,-1.65486 -0.77648,-2.42648 3.05145,-2.93347 2.24772,-1.92394 -5.04061,2.13657 -1.36712,0.76166 2.73368,-1.52948 4.14899,-2.19733 7.19657,-3.39591 14.83486,-5.68395 22.37307,-8.16745 8.39172,-2.54784 11.13611,-3.49196 19.62629,-5.62927 2.64185,-0.66506 5.29956,-1.2687 7.9662,-1.82604 1.65536,-0.34598 3.48542,-0.12269 4.99594,-0.88311 3.81306,-1.91955 7.37956,-4.35185 10.70943,-7.023192 0.79798,-0.640168 -1.97403,0.538104 -2.96105,0.807156 -9.66191,2.120816 -19.31541,4.251406 -29.04799,6.033376 -10.45819,1.91483 -17.46285,2.97082 -27.99332,4.59918 -4.13715,0.63975 -8.27676,1.26348 -12.41514,1.89522 -3.25972,0.55863 -6.51981,1.1152 -9.77918,1.67589 -6.78036,1.16637 -13.83031,2.01279 -20.09422,5.05738 0,0 -8.75473,7.00295 -8.75473,7.00295 z" />
    <path
       style="fill:#000000;fill-opacity:1;fill-rule:nonzero;stroke:none;stroke-width:0.264583"
       id="path200"
       d="m -109.77074,166.07011 c 1.63987,-5.65707 5.74188,-10.22342 9.52429,-14.56361 3.759339,-4.12032 7.924793,-7.84614 12.252411,-11.35618 1.78236,-1.44564 5.509596,-4.33195 7.549843,-5.63723 1.022646,-0.65425 2.117905,-1.18738 3.176857,-1.78106 -2.103114,1.56549 -4.795141,2.55614 -6.309344,4.69648 -0.497252,0.70287 1.775206,0.22185 2.482736,0.71245 1.025663,0.71119 1.839693,1.72093 2.528081,2.76203 3.677682,5.56205 5.102664,12.18481 6.690429,18.53116 1.568206,9.50054 1.24933,19.12763 -1.263132,28.43068 -1.058492,3.91936 -1.654421,5.03726 -3.150222,8.5916 4.017151,-1.72173 -3.830671,4.2853 -2.480484,3.68051 3.409712,-1.52731 6.787195,-3.16944 9.955477,-5.14955 0.754001,-0.47123 1.091139,-1.40423 1.644515,-2.10018 1.426713,-1.79432 2.790145,-3.64184 4.29569,-5.37053 2.1077,-2.42011 4.358172,-4.71207 6.537259,-7.0681 2.925061,-2.73267 5.770779,-5.55282 8.775181,-8.19801 5.3715,-4.72926 14.122003,-11.68884 19.843895,-16.09527 3.711255,-2.85805 11.856286,-8.96452 16.077099,-11.7465 1.8441028,-1.21546 3.7915255,-2.2664 5.6872883,-3.3996 -1.6275272,1.35161 -3.9478208,2.15697 -4.8825813,4.05484 -0.386612,0.78496 1.8471274,0.187 2.5148116,0.75252 0.7852508,0.6651 1.2394131,1.69266 1.5356343,2.67817 1.6549102,5.50579 0.3591589,12.04607 -0.3354507,17.56121 -1.454944,10.21861 -4.7905322,19.99888 -7.8060712,29.82457 -2.283828,7.44152 -1.896805,6.21973 -3.97693,13.51904 -1.844172,6.75998 -3.220501,13.63148 -4.562913,20.50417 0,0 9.44737,-4.60171 9.44737,-4.60171 v 0 c 1.137095,-6.77644 2.386546,-13.54238 4.1359765,-20.19217 1.5857521,-5.74959 2.0653406,-7.61453 3.8097012,-13.40992 2.9846307,-9.91601 6.31830266,-19.75757 7.8700779,-30.03892 0.774353,-5.45961 2.2091032,-12.99697 0.6447816,-18.47551 -0.4419515,-1.54779 -2.26082381,-5.31353 -4.9117767,-4.50348 -4.5206234,1.38137 -8.5788465,3.97244 -12.8682705,5.95866 -1.743832,1.09922 -3.531919,2.13118 -5.231497,3.29766 -3.880506,2.66331 -12.023737,8.89027 -15.38602,11.51879 -5.338895,4.17377 -14.843273,11.80577 -19.841905,16.16831 -3.132273,2.73368 -6.124041,5.62429 -9.186059,8.43643 -3.080141,3.22602 -9.090784,9.26821 -11.99358,13.1367 -0.726499,0.96819 -2.941675,3.38843 -1.748872,3.18248 8.716629,-1.50503 9.490543,-2.90218 11.994149,-8.35134 1.305706,-3.57541 1.816524,-4.66569 2.712456,-8.57813 2.162347,-9.44275 2.275596,-19.12049 0.790733,-28.68197 -1.4665,-6.40963 -1.552485,-7.92868 -3.863789,-13.87625 -0.717608,-1.8466 -1.448914,-3.70385 -2.438599,-5.42007 -0.532762,-0.92386 -3.225403,-5.14323 -5.444336,-4.48605 -4.287631,1.26987 -8.139999,3.70483 -12.209997,5.55725 -1.00343,0.60938 -2.038091,1.17007 -3.010286,1.82814 -7.193481,4.86914 -13.569567,10.95257 -19.592527,17.16438 -4.0031,4.61182 -8.38677,9.44756 -10.04322,15.48096 0,0 10.06112,-4.94785 10.06112,-4.94785 z" />
    <path
       style="fill:#000000;fill-opacity:1;fill-rule:nonzero;stroke:none;stroke-width:0.264583"
       id="path202"
       d="m 38.981858,243.57371 c -9.809125,2.20549 -13.329891,7.47551 -17.884673,14.71812 -4.58806,7.29554 -7.040354,11.5743 -10.627959,19.70479 -1.8132789,4.1094 -3.3156463,8.34906 -4.9734693,12.52358 -4.2532415,10.92885 -7.3251536,22.28474 -8.6806918,33.9453 -0.5260387,4.52506 -0.9679977,10.06051 0.1717953,14.62532 0.4248103,1.70135 1.398415,3.2163 2.09762245,4.82446 1.05613648,1.14469 1.8934806,2.53947 3.16840945,3.43405 3.3022101,2.31709 6.2258358,2.2868 10.1229099,1.62156 9.624823,-1.64299 19.217673,-9.61568 26.701463,-14.61702 1.735825,-1.80004 3.603259,-3.48189 5.20747,-5.40017 5.92051,-7.07961 10.42556,-16.51788 11.006524,-25.83243 0.13761,-2.20628 -0.154678,-4.41841 -0.232018,-6.62763 -0.40486,-2.08431 -0.667623,-4.20134 -1.214583,-6.25295 -1.672109,-6.272 -4.961909,-12.60541 -9.595864,-17.22345 -0.860917,-0.85796 -1.868185,-1.5553 -2.802276,-2.33296 -5.269428,-3.7265 -10.996144,-4.07199 -17.14034,-2.91058 -0.600312,0.18733 -1.200625,0.37465 -1.800937,0.562 0,0 -8.640057,6.74349 -8.640057,6.74349 v 0 c 0.594262,-0.2408 1.188525,-0.48159 1.782786,-0.72239 5.957576,-1.5099 11.462291,-1.44613 16.798651,1.97959 0.925102,0.71207 1.919171,1.34254 2.77531,2.13622 4.678963,4.33747 8.0582,10.40606 9.724157,16.51952 0.54324,1.9935 0.789493,4.05627 1.184238,6.08441 0.05187,2.15008 0.309496,4.30504 0.15562,6.45025 -0.665168,9.27317 -5.091496,18.2463 -11.098215,25.20625 -1.621428,1.87872 -3.499578,3.51959 -5.249365,5.27939 0.84872,-0.10311 3.192023,-0.86953 2.546157,-0.30935 -1.728103,1.49886 -3.914212,2.39609 -6.009757,3.31351 -2.816108,1.23285 -7.932963,2.72653 -11.180188,2.38728 -1.455712,-0.15206 -2.892673,-0.70959 -4.129656,-1.49196 -1.2287744,-0.77719 -2.0616854,-2.0506 -3.0925283,-3.07591 -0.7220791,-1.47934 -1.7013861,-2.85885 -2.1662373,-4.43802 -1.2787583,-4.34411 -1.0842112,-9.68497 -0.7080229,-14.05321 0.9917594,-11.51618 3.9770078,-22.69199 8.1463015,-33.44984 1.731548,-4.18097 3.281399,-8.4419 5.194643,-12.54289 3.393413,-7.27372 6.980683,-13.43316 11.554543,-19.95614 1.529095,-2.18071 5.923981,-3.85341 4.899345,-6.31182 -0.09937,-0.23841 -9.951286,4.32009 -5.068221,2.07 0,0 9.057113,-6.58037 9.057113,-6.58037 z" />
    <path
       style="fill:#000000;fill-opacity:1;fill-rule:nonzero;stroke:none;stroke-width:0.264583"
       id="path204"
       d="m 66.911722,379.21107 c 1.323366,-9.23063 5.790446,-14.91075 12.394623,-21.48573 8.829654,-8.7906 11.112457,-9.70253 21.502285,-16.99614 4.12671,-2.39073 8.17105,-4.92962 12.38012,-7.17217 1.23321,-0.65704 2.62087,-0.97211 3.91141,-1.50783 3.2458,-1.34737 6.41117,-2.89119 9.69586,-4.14079 4.0895,-1.55577 9.92033,-3.32277 14.39499,-4.00833 1.67822,-0.25712 3.38761,-0.23288 5.08142,-0.3493 3.15372,0.28588 6.90687,0.32507 9.27785,2.84821 2.33296,2.48267 2.66843,6.05459 3.13977,9.21621 0.27177,8.21224 -2.2888,15.97379 -5.32995,23.47558 -0.98559,1.95138 -1.5437,4.00005 -1.91971,6.13399 0,0 9.8914,-4.81878 9.8914,-4.81878 v 0 c 0.3745,-2.00982 0.93066,-3.95001 1.75917,-5.82956 2.82322,-7.68903 5.17335,-15.59245 4.93121,-23.88307 -0.47286,-3.49972 -0.85694,-7.29075 -3.3847,-10.06824 -2.57263,-2.82681 -6.59393,-2.89623 -10.08169,-3.1832 -1.80175,0.13306 -3.62186,0.11004 -5.40523,0.39915 -4.56818,0.74057 -11.00329,2.76445 -15.13686,4.36211 -14.48077,5.59697 -27.72868,13.82257 -41.080214,21.63072 -10.572302,7.4732 -12.925139,8.47304 -22.020868,17.42326 -7.211758,7.09639 -12.021293,13.06327 -13.868074,22.98149 0,0 9.867188,-5.02758 9.867188,-5.02758 z" />
    <path
       style="fill:#000000;fill-opacity:1;fill-rule:nonzero;stroke:none;stroke-width:0.264583"
       id="path206"
       d="m -456.36108,159.43342 c 4.93578,4.71572 5.54932,5.31705 11.80674,11.17861 12.27127,11.49492 16.48174,15.967 31.76619,26.46241 23.79692,16.34068 40.49959,24.70721 66.13771,38.89927 14.33177,6.7272 28.45483,13.91829 42.99535,20.18161 15.7594,6.78836 31.79881,12.91778 47.86106,18.95478 56.15117,21.10435 113.7337,37.80207 171.216061,54.79311 37.117845,10.1463 74.224098,20.32603 111.266294,30.7448 0,0 3.661071,-2.51524 3.661071,-2.51524 v 0 C -7.1071882,348.44561 -44.62096,338.93762 -81.72492,327.94926 c -42.22684,-11.64724 -84.50713,-23.26137 -126.10762,-37.0305 -32.79689,-10.85527 -62.66576,-21.59076 -94.19817,-35.83537 -14.22646,-6.42672 -27.95381,-13.90553 -41.93069,-20.8583 -11.66786,-6.83036 -23.61313,-13.20745 -35.00353,-20.49109 -9.76354,-6.24334 -19.24491,-12.94899 -28.40109,-20.05327 -13.53407,-10.50108 -25.63934,-22.93888 -36.51173,-36.14137 -1.04481,-1.26873 -1.98054,-2.62348 -2.97082,-3.93522 0,0 -9.51251,5.82928 -9.51251,5.82928 z" />
    <path
       style="fill:#000000;fill-opacity:1;fill-rule:nonzero;stroke:none;stroke-width:0.264583"
       id="path208"
       d="m -350.44165,299.72645 c 29.1111,10.58262 57.99516,21.78193 86.81028,33.14391 15.70855,6.194 31.42808,12.36122 47.08956,18.67328 18.11538,7.30105 36.15976,14.77701 54.23965,22.16552 36.17107,15.17486 72.284254,30.48715 108.440945,45.69614 17.036182,7.1661 34.115377,14.23016 51.1282777,21.45138 14.7055083,6.24184 29.3483663,12.63026 44.0260023,18.93734 52.339099,22.49051 18.226664,7.75671 63.028015,27.15183 0,0 4.42947,-2.96603 4.42947,-2.96603 v 0 C 82.387111,474.12163 70.194468,469.67711 42.719929,458.84086 -26.085939,431.7031 -93.845834,402.0268 -162.11356,373.58322 c -61.7696,-26.42595 -41.3033,-17.49922 -98.63811,-42.6367 -27.07435,-11.87032 -54.27413,-23.57665 -80.43078,-37.40216 0,0 -9.2592,6.18209 -9.2592,6.18209 z" />
    <path
       style="fill:#000000;fill-opacity:1;fill-rule:nonzero;stroke:none;stroke-width:0.264583"
       id="path210"
       d="m -332.08243,414.29146 c 0.96952,0.0153 1.94453,-0.0585 2.90854,0.046 4.95247,0.53654 16.96281,2.96195 19.78094,3.5819 7.60738,1.67354 15.18907,3.46649 22.74694,5.35101 14.04647,3.50245 46.24243,12.19941 59.29066,15.69463 12.43125,3.61024 24.9119,7.05454 37.29375,10.83072 13.88655,4.23511 27.66465,8.81806 41.50519,13.20123 15.83914,5.01608 31.6637,10.07917 47.53379,14.99648 18.758654,5.81234 37.578834,11.42439 56.351273,17.19207 114.788083,35.26763 2.0618,1.00885 118.582684,36.28551 65.886453,19.68439 131.768343,39.51473 196.754683,62.03198 0,0 7.12679,-4.8647 7.12679,-4.8647 v 0 C 209.56013,570.7594 141.46707,552.28272 74.098649,531.34312 35.856418,519.76535 -6.3588074,507.1157 -44.483901,495.05779 -62.959469,489.2145 -81.389976,483.22814 -99.792037,477.1573 c -29.143363,-9.61437 -58.068433,-19.88399 -87.232903,-29.43413 -12.07503,-3.95409 -24.22959,-7.66098 -36.34439,-11.49146 -2.36503,-0.68887 -52.87448,-15.39322 -57.66727,-16.81654 -17.97156,-5.33707 -18.38558,-5.79292 -33.63183,-9.92873 -5.52238,-1.49805 -4.25883,-1.23074 -8.35556,-1.77631 0,0 -9.05844,6.58133 -9.05844,6.58133 z" />
    <path
       style="fill:#000000;fill-opacity:1;fill-rule:nonzero;stroke:none;stroke-width:0.264583"
       id="path212"
       d="m -129.46601,445.33105 c 28.99923,9.00861 75.314182,23.46097 99.992353,30.66807 29.64503883,8.65764 59.132567,17.97044 89.161397,25.18518 82.55351,19.83438 162.11132,32.62154 246.31849,44.31088 44.12157,6.12482 88.43103,10.80992 132.64655,16.21489 39.81286,4.06 79.62572,8.11998 119.43858,12.17996 0,0 0.18484,-0.13142 0.18484,-0.13142 v 0 c -39.81278,-4.05987 -79.62556,-8.11972 -119.43834,-12.17959 -44.21537,-5.40478 -88.52469,-10.08973 -132.6461,-16.21428 -84.20371,-11.68844 -163.76643,-24.47573 -246.316947,-44.30863 -30.028631,-7.21442 -59.71261333,-15.88 -89.160806,-25.18434 -21.410197,-6.76468 -42.401199,-14.82053 -63.315191,-22.99136 -9.785246,-3.82297 -19.150136,-8.64508 -28.725206,-12.9676 0,0 -8.13962,5.41824 -8.13962,5.41824 z" />
  </g>
</svg>
