<?xml version="1.0" encoding="UTF-8" standalone="no"?>
<svg
   xmlns:dc="http://purl.org/dc/elements/1.1/"
   xmlns:cc="http://creativecommons.org/ns#"
   xmlns:rdf="http://www.w3.org/1999/02/22-rdf-syntax-ns#"
   xmlns:svg="http://www.w3.org/2000/svg"
   xmlns="http://www.w3.org/2000/svg"
   xmlns:sodipodi="http://sodipodi.sourceforge.net/DTD/sodipodi-0.dtd"
   xmlns:inkscape="http://www.inkscape.org/namespaces/inkscape"
   version="1.1"
   id="svg274"
   width="360"
   height="452"
   viewBox="0 0 360 452"
   sodipodi:docname="gvhjvhjvhjç.jpg.svg"
   inkscape:version="1.0.1 (0767f8302a, 2020-10-17)">
  <metadata
     id="metadata280">
    <rdf:RDF>
      <cc:Work
         rdf:about="">
        <dc:format>image/svg+xml</dc:format>
        <dc:type
           rdf:resource="http://purl.org/dc/dcmitype/StillImage" />
        <dc:title></dc:title>
      </cc:Work>
    </rdf:RDF>
  </metadata>
  <defs
     id="defs278" />
  <sodipodi:namedview
     pagecolor="#ffffff"
     bordercolor="#666666"
     borderopacity="1"
     objecttolerance="10"
     gridtolerance="10"
     guidetolerance="10"
     inkscape:pageopacity="0"
     inkscape:pageshadow="2"
     inkscape:window-width="1920"
     inkscape:window-height="1025"
     id="namedview276"
     showgrid="false"
     inkscape:zoom="1.3735393"
     inkscape:cx="24.191372"
     inkscape:cy="229.02604"
     inkscape:window-x="0"
     inkscape:window-y="27"
     inkscape:window-maximized="1"
     inkscape:current-layer="g282"
     inkscape:document-rotation="0" />
  <g
     inkscape:groupmode="layer"
     inkscape:label="Image"
     id="g282">
    <path
       style="fill:none;stroke:#635956"
       d="m 291.11656,33.501324 c -1.305,-15.7713 8.371,-17.8477 6,-26.9999998 6.111,-5.1331 13.792,-10.9228509 27,-4 -4.868,4.7605 -7.559,9.0329998 -19,13.9999998 2.747,4.036 3.212,8.0199 13,20 m 6,-33.9999998 7,1 c -3.321,3.6123 -6.706,15.1337998 -19,11.9999998 m -32,7 c -9.803,-4.9549 -12.234,-9.231 -18,-15.9999998 9.572,-3.6714 21.167,-4.4471 32,0 l -14,15.9999998 9,3 m 42,-21.9999998 c 22.409,2.4946 27.266,-3.64212003 28,15.9999998 m -168,-11.9999998 c -3.631,11.8297998 -6.808,15.4299998 -8,23.9999998 -21.91,-4.0884 -19.781,-12.9328 -26,-21.9999998 34.403,-14.1225909 79.274,-0.6947 59.896,17.6330998 -2.563,2.4248 -5.394,4.6042 -10.896,7.3669 l -4,-5 c -0.042,3.7321 0.853,4.5123 4,5 M 63.116563,8.5013242 c 11.3639,-3.2163 25.5001,-2.8997 35,1 l -18,17.9999998 c -9.5677,-10.7957 -17.131,-20.8429998 -31,-14 6.089,6.123 19.0841,11.3969 12,26 m 190.999997,-6 c -0.138,-9.3382 -1.935,-14.7801 -8,-22 7.845,-1.8627998 12.271,-3.5026998 18,-4.9999998 m 32,0 h 3 m 59,1 c -8.745,9.9355998 -9.149,18.4033998 -11,24.9999998 M 98.116563,9.5013242 c 7.484997,0.1118 22.702997,0.2958 27.997997,2.7601998 7.961,3.7056 15.028,12.5858 18.002,24.2398 l -11,5 -5,-12 c -10.101,7.6791 -9.741,4.3544 -11,4 l 1,1 1,1 1,1 m 9,-26.9999998 c 10.091,0 18.251,0 28,0 m -53.99999,0.9999998 c -5.209607,6.0957 -10.607407,11.2825 -17.000007,27 m 167.999997,-27 14,17 m -146,-15 c -1.075,5.3945 2.646,10.7215 6,17 m 100,-18 h 16 m -242.9999974,2 c 8.86747,0 7.11881,-0.1461 47.0000004,-1 m 73.999997,0 20,20 m 49,-20 c 4.349,4.4908 8.984,8.6253 12,17 m 98,-17 4,4 m -80,-3 c -5.098,5.0977 -10.044,10.0445 -19,19 m -171.999997,-18 c -4.4192,15.3205 -12.4245,14.8737 -18,32 m 228.999997,-32 c 0,4.7429 0,7.1758 0,23 m -124,-18 -7,11 m 74,-11 12,12 m 25,-12 -10,17 m 69,-17 2,5 m -251.999997,-3 c 5.4307,8.5846 8.7896,21.967 -4,25 m 238.999997,-21 h 9 l -1,3 m 51,-5 h 3 m -168,1 c -6.667,9.0892 4.39,17.6898 -3,5 m 69,-5 c 2.871,4.1259 8.052,5.7976 12,21 m 37,-20 h 2 m -76,1 h 6 m 18,1 v 9 m -147.999997,-8 4,6 m 248.999997,-6 h 2 m -198,1 -1,6 1,1 1,1 m 41,-6 c -0.709,3.6802 -1.372,6.9541 -5,14 m 9,-14 4,8 15,9 -4,-4 m 98,-13 v 1 m 62,-1 h 1 m -243,3 v 4 m 16,-4 h 3 m 178,1 v 2 m -209.99999,-1 v 2 m 41.99999,0 h 9 m 32,2 4,6 c 3.627,-3.3805 5.241,-4.8235 9,-8 m -52,1 c -2.538,3.9426 -5.001,7.179 -13,12 m 218,-12 h 1 m -144,2 h 2 m -110.99999,1 h 2 m 59.99999,0 8,6 m -24,-5 4,4 m 11,-4 5,5 m 79,-5 h 1 m -56,1 1,1 m 168,-1 v 4 m -176,1 6,-3 m 57,1 h 1 m -35,3 v 1 m -30,4 1,1 m 25,0 2,-1 m -76,10 1,5 m -4,-3 v 6 m 69,-5 v 5 l -7,2 -1,-6 m -51,0 v 1 m 141,7 -2,-7 c 7.809,7.698 10.434,15.864304 2,17.000004 l 3,-11.000004 m -176,-5 h 1 m 61,0 v 1 m 4,-1 c 3.641,16.430704 5.341,24.175004 16,34.000006 -2.559,4.62699 -3.844,7.75299 -8,13.99999 l -8,-9 m 29,-37.999996 c -13.862,13.852704 -20.362,16.325104 -13,24.000004 l 1,-11 m 81,-13.000004 -3,5 5,4 2,-2 -4,-5 m -112,-1 c 6.627,6.6638 9.74,10.523104 14,15.000004 M 86.116563,74.501324 c 3.0532,4.4128 4.4925,6.8214 9,10.000004 m -4,-7.000004 c 8.60711,3.0067 14.215997,2.809 22.999997,-1 1.975,2.6065 3.017,4.1415 7,5 h 1 1 1 m 69,-5 -2,7.000004 m 98,-7.000004 8,2 c -2.462,2.4461 -2.305,1.4843 -3,0 m -210.999997,2 3,-3 -6,6.000004 m 18,-4.000004 6.000007,1 m 146.99999,5.000004 c 8.001,-0.2795 12.17,-3.399204 19,-8.000004 m -182.999997,1 h 2 m 208.999997,0 1,2 m -218.999997,-1 h 3 m 186.999997,0 5,2 m 2,-2 h 4 m -65,1 c -13.437,18.653004 -20.7,11.870004 -12,37.999996 m -95,-36.999996 c 2.247,1.2162 3.49,2.316904 9,3.000004 v 0 m 25,-3.000004 -4,3.000004 m 43,-3.000004 2,3.000004 m 110,-3.000004 -9,6.000004 M 84.116563,82.501324 c 3.6692,10.894004 -1.1854,15.213004 -4,23.000006 7.0019,-7.616002 10.0023,-11.475002 19.00001,-8.000002 l -9.00001,-1 m -1,-14.000004 -2,2.000004 m 15.000007,-2.000004 7.99999,7.000004 -5.99999,6 c 4.09699,0.677 7.27299,0.757 11.99999,-8 m 57,-3 3,-2.000004 m 63,0 8,2.000004 m -15,-1 -1,1 m 41,-1 1,13 -8,-3 c -0.599,-2.411 -0.362,-2.739 -3,-3 h -1 -1 m -145,3 c 1.949,0.73 7.236,3.305 5,-4 3.533,-1.9384 6.269,-3.7561 15,-5 m 79,0 c -0.511,6.883 -3.683,7.864 -7,9 m 89,-9 -3,4 m -213.999997,-2 7,6 m 18.999997,-6 2,4 m 48,-4 h 3 m 143,1 c 2.94,0.8045 3.359,1.6919 4,5 l -5,-5 -5,8 m -179,-8 4,2 m 153,-1 -7,1 m -93,-1 -3,3 -3,-2 m 106,-1 h 8 m -171,1 h 3 m 57,0 1,1 m 111,-1 -7,5 m -99,-4 -8,9 5,4.000002 -2,-6.000002 m 98,-7 v 3 m -186.999997,6 c -3.2857,-6.447 0.9694,-5.39 3,-5 m 84.999997,-3 -7,7 -5,-5 m 65,1 4,-3 1,1 c -3.306,2.306 -10.386,5.471 -4,13.000002 -7.463,10.86399 -9.466,9.28499 -17,4.99999 l 3,3 m -58,-20.999992 h 1 m 129,0 c -0.155,6.542 -5.139,12.260002 -9,5 m -103,-4 2,2 m 134,-2 v 4 c -9.534,3.611002 -16.258,9.641002 -10.452,15.106992 5.585,5.257 11.179,-8.56899 11.452,-14.106992 m -205.99999,-4 5.99999,5 m 86,-5 h 7 m 11,0 7,5 m 75,-5 -1,8.000002 6,-2 m -152,-5.000002 17,3 m 10,-3 h 5 m -78.999987,2 h 1.999997 m 12.99999,1 c -5.339,3.567002 -9.367,4.850002 -20.999997,9.000002 M 188.11656,97.501328 v 1 m -74,0 c -0.064,3.072002 1.117,6.486002 -9,9.999992 m 169,-9.999992 2,2.000002 m -188.999997,-1.000002 7,5.000002 m 3,-5.000002 4.000007,1.000002 m 41.99999,-1.000002 14,6.000002 c -4.804,3.31399 -27.313,17.67899 -37,36.99999 -1.576,-4.313 -2.426,-8.058 -1,-16 m 48,-26.999992 h 1 m 14,0 -8,3.000002 m 50,3 15,-6.000002 m -151.999997,2.000002 -6,12.99999 h -7 m 25.00001,-12.99999 v 2 m 5.999987,-2 -1.99999,2 m 8.99999,-2 v 5 m 75,-5 -6,9.99999 m 37,-9.99999 -6,8.99999 m -71,0 c -0.185,-2.35299 -0.893,-4.29499 3,-7.99999 m 16,0 c 3.368,8.89499 7.537,10.21299 15,15.99999 m 107,-15.99999 c 5.03,1.743 6.864,0.967 10,0 m -144,1 -6,6.99999 m 91,-6.99999 -3,7.99999 m 9,-6.99999 v 2 h -4 m -154.999997,-1 -1,3.99999 m 54.999997,-3.99999 h 4 m 89,0 4,2.99999 m 29,6 c -9.563,1.445 -13.846,0.326 -20,-4 5.865,-3.07299 10.195,-3.82599 16,-3.99999 m -97,0 c -2.637,2.09299 -4.521,4.15199 -11,5.99999 m 141,-5.99999 2,1.99999 m -99,-0.99999 3,2.99999 m -92.99999,-2 h 1 m 138.99999,0 h 5 l 4,6 m -172.999997,-5 -2,2 m 33.999997,-2 h 2 m 60,0 v 1 m 13,-1 2,2 m -80,-1 h 1 m 78,0 -2,3 m 53,-3 3,1 m 5,-1 -2,2 m -50,-1 1,8 v -5 m 51,2 -8,-3 2,-1 m -28,1 5,6 m -107,-5 -12.999997,7 m 78.999997,-6 v 1 m 13,-1 2,2 m 33,-2 -6,5 m -28,-4 -6,4 m 17,-3 c -1.751,4.047 -3.176,3.809 -6,2 v 0 m 53,-2 c 3.639,7.933 9.648,15.922 6,23 m 46,-23 c -0.413,5.585 1.931,9.114 6,12 m -95,-11 v 13 m -33,-12 7,3 m 99,-3 1,1 m -107,0 -2,2 m -15,1 -2,3 m 22,-3 -5,3 m 8,-3 c 2.993,5.328 4.401,14.611 14,16 l -7,-1 m 7,-15 3,7 1,-6 m 26,0 5,2 m 54,-1 h 9 c 1.133,5.391 2.139,10.315 -1,16 m -107,-12 4,-3 m 67,6 10,-6 m -168.999987,1 h 0.999997 m 219.99999,0 -4,9 8,-1 m -138,-6 -11,4 m 22,-4 v 7 m 70,-7 5,2 c -5.931,6.213 -15.969,17.318 -19.421,20.488 -7.64,7.019 -7.356,5.747 -14.491,15.983 -5.116,7.338 -10.535,18.919 -11.088,21.529 m -132.999997,-59 h 1 m 23.999997,1 4,4 m 23,-2 5,-2 m 54,0 v 2 m 11,0 c 3.768,-0.717 5.745,-0.24 8,2 m 72,-4 -4,4 m -89,-3 v 1 m -25,0 -2,10 m 62,-10 h 1 m -128,2 v 1 m 83,0 2,-1 m 9,0 4,7 1,-7 m 49,0 4,4 m -145,-3 h 4 m 114,0 c 2.745,5.996 3.96,9.34 4,13 l -6,-6 m -32,-6 c -2.721,9.237 -2.927,13.811 -1,19 3.353,-1.616 5.878,-2.553 12,-6 l -4,-8 m 84,-5 v 1 m 12,3 10,-4 m -210.99999,1 -7.000007,5 m 22.999997,-1 -3,6 -1,-10 m 47,1 1,3 6,-2 m 44,-1 -1,10 m 27,-10 -1,1 m -130,0 c 1.591,4.805 3.631,7.03 8,8 m 79,-8 -4,4 5,7 m 14,-11 h 2 m 33,0 -3,4 m 58,-4 h 1 m -162,3 5,3 m 19,-4 c -1.242,19.115 6.774,24.352 17,23 l -3,-11 10,10 h -7 m 15,-22 3,3 m 39,-3 c 0,2.713 -0.017,1.526 -1,3 m 60,-3 -3,4 m 20,-4 h 1 m -214.99999,5 7.99999,-4 m 155,0 c 13.835,12.139 17.684,19.412 23,29 2.642,-1.992 4.258,-6.078 15,-5 -13.659,13.667 -20.771,21.044 -15,35 8.276,-8.271 11.656,-15.288 25,-19 m -16,-40 1,1 m -116,0 -2,9 m 70,-8 v 1 m 47,-1 7,10 m -79,-9 -8,8 c 7.18,9.87 11.206,16.188 19,17 m -86,-23 c 1.26,5.778 1.5,19.228 18,17 m -2,-17 h 4 m 100,0 c -12.35,13.397 6.427,31.106 12,35 l 17,-17 m -6,-18 3,3 m -180,-1 c -3.553,5.737 -3.253,7.941 -3,11 l 1,1 m 128,-12 1,10 m -29,-9 3,3 m -33,-2 c 15.127,19.786 17.922,13.836 23,45 10.396,-13.439 2.552,-23.134 15,-29 m 33,-16 3,1 m -45,0 c 4.328,6.801 6.014,9.751 9,14 m -81,-13 h 1 m 133,1 c -4.966,7.472 -6.151,9.851 -8,13 m -4,-12 7,7 m -180.999997,-4 c 7.9305,5.257 14.103007,7.895 17.999997,-1 l 1,-1 h 1 m 93,0 c 1.696,6.317 4.076,9.653 12,12 m 101,-11 15,4 m -29,-3 1,1 m -202.999997,3 3.000007,-3 m 205.99999,0 16,2 m -234.999997,0 5,2 m 106.999997,-2 -2,2 m -110.999997,0 c 0.7623,2.364 2.6362,9.649 9,1 m 214.999997,-1 4,3 m -153,2 c -4.674,3.124 -9.204,6.579 -18,1 l 9,-5 m 31,1 v 4 m -55,-3 -1,1 m 2,2 h 14 m 97,-3 c 5.092,1.517 10.968,0.315 24,4 m 37,-4 h 2 m -142,2 c 3.993,8.108 -9.417,20.475 -16,5 m -3,-4 c -8.289,12.337 2.749,24.275 15,35 m 61,-35 -7,7 m 15,-6 -4,12 m -132.999997,-11 -9,20 c -6.2406,-2.616 -6.7631,1.784 0,1 l 5,16 m 200.999997,-37 v 3 m -156,-1 6,4 m 128,-4 c -11.019,10.193 -20.696,13.596 -29,2 m 37,2 c -1.69,1.737 -3.354,3.413 -5.064,5.284 -18.67,20.418 -7.157,34.429 11.064,40.768 6.059,2.108 9.151,4.799 9.997,5.49 6.24,5.098 10.31,9.249 17.003,18.458 l -1,1 c -11.104,-12.726 -16.22,-17.219 -23,-24 1.3,4.241 16.52,10.976 19,32 l -3,-4 c -2.842,2.842 -2.177,-0.531 -1,3 l 1,1 1,1 1,-1 m -182,-77 h 3 m 45,2 4,8 -1,-3 m 69,-4 c -1.228,23.261 8.186,30.227 15,37 -1.537,1.5 -10.417,13.373 -22,13.718 -7.688,0.228 -10.97,-4.205 -18.906,-6.652 -20.253,-6.243 3.109,-20.403 2.906,-33.066 l 2,2 m 64,-13 1,3 m -179.99999,-1 8.99999,1 m 79,1 -2,2 m 127,-2 v 1 m -209.99999,0 c -4.851097,12.383 -6.802407,19.715 -6.000007,27 l 4.000007,-5 m 208.99999,36 c -5.241,-11.136 -12.223,-15.217 -18,-21 2.462,-2.462 4.861,-4.853 7.146,-7.156 1.574,-1.587 3.106,-3.113 4.737,-4.857 15.508,-16.585 -13.29,-0.576 -16.883,3.013 -1.986,-23.014 14.285,-24.041 21,-28 m -247.999997,1 -1,3 m 63.999997,-2 8,8 1,-7 m 7,0 -5,3 m 40,-3 v 1 m -107.999997,1 v 1 m 27,-1 v 1 m 48.999997,0 -4,6 m -46.999997,-5 -4,12 m 47.999997,-12 v 5 l 2,-2 m 67,-1 1,4 7,-6 m 106,0 3,4 m -257.999997,-3 v 1 m 2,10 7,-11 m 3,0 -5,6 m 73.999997,-5 c -1.452,4.434 -2.922,7.705 -4,17 l 4,-8 m 104,-9 h 1 m -180.999997,1 3,3 m 49.999997,-3 h 1 m 5,0 c -1.632,5.842 -1.397,8.429 0,13 m 4,-13 2,2 m 125,-2 c 3.197,2.731 18.309,21.245 28,19 m -139,-18 v 4 m -14,-3 2,11 m 81,-10 4,-1 m -15,1 8,17 c 4.282,-3.602 9.404,-4.184 18,-14 l 8,7 -8,10 m 82,-20 c -12.081,12.082 -15.996,15.97 -22,23 m -77,-22 9,3 m 7,-3 v 1 m 55,-1 v 4 m -107,-3 c -2.751,5.033 -4.203,7.623 -7,12 m -76.999997,-11 2,4 m 41.999997,-4 2,5 m -60.999997,-4 1,2 m 47.999997,-2 -2,2 m 65,-1 h 1 m 27,0 -8,8 m -121.999997,-7 v 2 m 34.999997,-2 -2,4 m 27,-4 -2,11 m 45,-8 12,-3 m 26,0 7,5 m 82,-5 h 1 m -242.999997,3 -1,2 m 7,-2 v 2 m 62.999997,-2 2,5 m 173,-5 v 1 m -95,0 6,4 m -151.999997,-3 -2,3 m 65.999997,-3 3,5 m -43,-4 -6.999997,4 v -2 m 26.999997,-2 -1,2 m 105,-2 -11,10 8,11 m 15,-21 h 1 m -66,1 c -5.152,27.543 6.066,35.758 21,38 l -8,-9 m -4,-29 3,13 -4,4 -2,-5 c -2.237,6.167 -3.361,9.762 -6,16 m 168,-28 c 5.975,18.59 -1.858,32.019 -5,43 l -7,-7 m 16,-36 v 2 m -205,-1 3,1 m 44,-1 h 1 m -102.999997,2 c 0.9124,11.495 4.628,13.99 8,18 l 3.00001,-16 m 130.999987,-2 h 2 m -62,1 -1,2 m 45,-2 -1,7 m 74,-6 5,5 m 57,-5 1,3 m -265.999997,-2 -2,16 m 169.999997,-16 10,6 c -3.497,3.628 -8.924,11.764 -16,25 l -7,-13 m 43,-18 v 3 m -205.999997,-2 1,6 2,-5 m 96.999997,-1 -2,2 m -91.999997,0 v 2 m 132.999997,-2 h 3 m 53,0 -9,3 m 33,-2 c 2.124,2.124 13.684,20.148 27,17 7.201,14.939 2.811,22.253 15,41 l 8,-9 -10,7 m -14,-56 c -5.798,5.783 -13.049,6.743 -21,3 m -115,-2 -2,2 m -99.999997,-1 v 4 m 92.999997,-4 h 4 m 8,2 c 8.87,-0.692 12.177,0.255 16,1 m -127.999997,-1 -3,11 m 65.999997,-11 1,5 -1,1 m 49,-6 c 3.046,0.477 4.21,0.593 8,0 m 139,0 4,21 m -61,-20 c 5.706,6.686 11.165,10.176 19,23 m 41,-23 7,16 m -263.999997,-15 -2,2 m 268.999997,-2 4,5 m -240,-4 c -3.843,17.08 -11.91099,19.954 9,28 m 113,-28 v 1 m 45,-1 c 0.504,7.843 6.326,13.292 14,21 -4.021,-9.07 -9.609,-13.578 -15,-19 m 54,-2 3,3 m -193,-2 4,9 m -75.999997,-8 v 3 m 243.999997,-3 8,8 m -225.999997,-6 c 2.0954,7.185 5.245007,8.451 8.999997,10 m 31,-9 v 3 m 139,-3 17,17 m -224.999997,-16 2,1 m 10,0 -1,1 m 117.999997,-1 c 3.618,17.055 18.331,4.802 28.999,5.959 6.902,0.749 19.562,6.385 13.73,13.704 -2.489,3.124 -20.644,-3.144 -23.17,-0.545 -3.973,4.087 0.381,8.646 2.862,12.409 7.867,11.93 1.707,10.857 0.579,26.473 -9.341,1.702 -12.646,4.199 -15,8 l 1,1 v 1 1 m 19,-69 v 1 m 113,-1 h 3 m 13,0 h 2 m -286.999997,1 c -3.7272,9.208 -9.8825,17.657 -9,28 l 3,-5 m 19,-23 c -0.2122,16.521 9.4814,13.311 13,4 -1.4622,-0.053 -6.7919,-2.828 -11,6 m 191.999997,-10 c 0.027,19.504 -5.416,22.043 -3,39 3.901,-3.864 31.458,-16.613 17,0 l 9,12 m -203.999997,-48 v 2 m 32.999997,-2 v 1 m 215,-1 -3,3 m -244.999997,-1 c 2.7473,3.146 3.6191,9.112 14.999997,13 m -3,-13 4,4 3,-3 m 109,-1 v 9 m -58,-6 12,1 m 42,-3 -1,6 m -90,-5 v 2 m 197,-2 -10,6 3,1 m 31,-7 c 3.267,7.795 7.148,8.128 11,9 v -9 m -195,1 v 7 l 3,-6 m -56,0 5,2 m 84,-2 c -0.225,1.613 -0.805,2.611 0,5 m 11,-5 5,3 m 84,-2 h 2 m 18,2 6,-2 5,8 m -157,-7 c 0.787,6.733 -2.983,10.273 -11,16 -1.148,-8.677 3.822,-10.315 11,-16 m 123,0 h 2 m 5,0 -2,2 m -8,-1 h 2 m -271.999997,1 c -3.2139,7.778 -2.3461,11.661 -1,16 l 11,-7 m 164.999997,-9 c 1.899,4.04 3.435,10.82 13,15 m 34,-15 -3,3 m 68,-3 h 3 m -114,1 11,9 m 80,-9 -2,3 7,6 -5,-7 m 1,-2 2,2 m 5,-2 h 1 m 20,0 2,1 m -289.999997,0 1,3 m 58,-3 9.000007,9 c -1.540007,1.6 -8.793707,15.526 -10.648407,22 -3.9956,13.948 -14.3815,6.872 -9.3516,24 l -4,4 c -1.3519,-4.936 -1.366,-7.163 -1,-11 m 44.999997,-48 -4,1 m 12,-1 h 1 m 185,0 1,1 m -210.99999,0 h 0.99999 m 171,0 h 12 m 33,0 4,4 m 26,-4 -11,2 m 19,-2 c -2.059,18.031 -11.718,21.936 0,24 m -270.999997,-23 c -1.02,7.173 -1.0103,12.17 -1,18 m 81.999997,-18 6,1 m -70.99999,7 -4.999997,-7 c 5.946987,7.607 6.607987,11.187 7.999987,14 l 4,-3 -6,-6 m 58,-5 5,5 m -70.999997,-4 h 1 m 78.999997,0 1,4 -4,-2 m 124,-2 -2,2 m 16,-2 6,4 m -211,-3 2,2 m 8,-2 -6,2 3,7 h -1 -2 m 13,-9 h 5 m 114,0 c 12.239,8.148 18.145,8.347 26,10 m 50,-10 1,3 m 4,-3 1,4 m 7,-4 v 1 m 11,-1 c 0.238,5.146 0.526,8.347 1,13 m -271.999997,0 c 4.212,-8.072 8.248,-9.974 14,-10 m 141.999997,-2 -7,9 m 93,-8 c -0.605,11.293 3.298,21.652 6,30 l 6,-5 10,10 c -3.714,-8.2 -6.525,-10.382 -14,-35 m -213,0 h 2 m 4,0 v 3 m 22,0 -9,-2 6,-1 m 163,0 5,4 m -181,11 5,-5 3,4 c -5.985,0.655 -9.161,-1.612 -13,-7 l 12,-6 m 187,0 -1,2 m -277.999997,-1 -10,13 c 3.8214,-1.293 7.3747,-3.323 11,-9 m 141.999997,-4 7,2 m -152.999997,-1 c -2.9179,2.979 -9.3504,5.22 -15,21 -4.328,-3.508 -8.8361804,-7.913 -17.0000004,-10 m 99.0000074,-11 3,3 m 26.99999,-3 6,4 m 191,-3 -3,3 m -267.999997,-2 -1,4 m 69.999997,-4 h 3 m -68.999997,1 -2,10 -1,-5 m 127.999997,2 c -9.573,-1.531 -16.207,-5.555 -26,-3 m 18,-4 v 1 m -152.999997,0 v 4 m 141.999997,-3 5,1 m 95,-1 c -2.352,2.361 -17.633,11.425 -12.729,19.562 3.324,5.515 19.085,2.849 21.729,2.438 l -2,-13 m 30,-9 v 1 m -155,0 v 2 -2 m -139.9999974,5 c 6.3782004,-2.696 10.5037004,-2.026 15.0000004,0 m 84.999997,-3 -12.999997,11 c 5.48821,5.445 11.362997,13.125 19.999997,16 m 45,-22 7,-5 m 27,1 h 1 m 151,0 c 2.937,23.956 -5.915,22.491 -1,46 l 15,-17 m -335.999997,-28 2,2 m 103.999997,-2 -1,11 m 11,-7 6,-4 m 44,0 h 2 m -119.999997,1 -2,5 m 35.999997,-5 c 3.337,2.099 6.214,4.34 15,5 0.32,4.787 0.646,9.022 7,15 l 5,-8 m 16,-12 h 1 m -4,1 h 1 m -88.999997,1 v 6 m 66.999997,-6 6,3 m 19,4 -1,3 h -7 c 1.066,-4.809 3.653,-7.075 8,-10 m -27,1 -2,2 m 43,-2 -2,6 c 6.044,-0.791 10.09,-0.385 17,1 m 96,5 c 6.541,-6.202 10.717,-9.272 15,-12 m 41,1 2,5 m 2,-5 -2,2 m -181,-1 -3,4 m -93.999997,-2 v 3 m 133.999997,-3 -3,1 m 53,-1 v 2 m -93,0 2,-1 m 189,0 v 8 m -334.9999974,0 5,-7 10.0000004,1 m 144.999997,-1 -2,2 m 9,-2 -7,6 m -142.999997,-5 6,9 m 127.999997,-9 -2,1 m 23,0 1,2 m -119.999997,-1 v 1 m 86.999997,-1 2,5 4,-5 m -135.999997,2 c -5.1945804,3.24 -7.0194004,4.273 -10.0000004,6 m 89.0000004,-6 c 2.7879,7.736 5.6534,11.255 9.81911,22 3.658897,9.438 3.528897,30.684 14.180887,37 l 3,8 2,-7 -4,-2 m 37,-58 v 3 m -4,-1 -8,9 2,-8 m 178,-1 c 2.507,13.509 -1.286,19.163 -5,29 l 7,-9 m -157,-14 -1,-4 c 7.736,21.316 13.321,16.303 38,9 m 70,-9 c -5.708,5.497 -10.62,12.657 -23,10.777 -9.63,-1.463 -20.12,-8.018 -25,3.223 m 50,-14 c 4.041,31.479 13.56,29.543 19,41 m 44,-39 h 2 m -211,1 c 5.764,10.913 7.495,33.423 2,46 l -4,-6 m 94,-39 h 7 m 108,-1 c -3.236,0.935 -5.592,1.646 -12,2 m -103,-1 v 11 m -103,-10 2,3 m -26.999997,-2 c -3.3226,3.465 -20.8239,8.877 -16,26 1.8372,-3.824 2.2184,-6.081 -2,-8 m 68.999997,-18 6,2 m 16,-2 -3,3 5,5 m -28,-7 -4,4 m -24,-3 -2,2 m 4,-1 3,11 m 21,-11 7,7 m -128.999997,-6 v 1 m 295.999997,-1 c 1.497,14.868 1.556,17.602 3,22 -10.928,3.033 -10.077,14.809 -5,24 -7.763,13.965 7.653,23.997 18,33.927 7.195,6.906 16.077,13.495 16.861,3.667 0.54,-6.76 -6.28,-10.992 -12.864,-17.594 -9.947,-9.974 -17.382,-16.691 -21.997,-20 m -248.999997,-45 -2,6 m 17,-5 v 1 m 3,1 -2,2 m 154.999997,-2 v 1 m 128,-1 c -2.513,3.505 -16.074,11.162 -16.861,23 -0.457,6.858 8.464,13.723 9.57,15 6.697,7.732 17.741,62.046 4.454,83.849 -9.712,15.937 -21.261,-5.597 -35.163,-9.517 -1.437,-0.405 -32.449,2.227 -42,1.449 -6.95,-0.566 -18.287,-2.049 -24.011,-8.199 -14.82,-15.921 0.317,-24.362 -10.533,-39.298 -1.33,-1.831 -2.903,-3.53 -4.456,-5.284 15.232,-11.756 22.041,1.049 33,12 l 5,-12 -3,4 c 4.786,5.342 7.099,7.864 10,11 l -1,-10 h 5 c 4.128,4.479 6.71,3.2 10,2 -6.516,-5.967 -2.509,-26.134 3,-38 m 1,-29 3,17 m -234.999997,-16 3,7 m 2,-7 v 4 m 5,-4 1,1 m -20,0 v 20 l 1,-6 m 21,-14 c 1.0686,8.352 3.236,15.884 6,30 m 10.000007,-29 c -2.232207,3.188 -6.793907,7.486 -3.000007,18 l 6.000007,-6 m 218.99999,-12 16,17 m -263.999997,-16 -2,2 m 101.999997,-2 -1,11 m 101,-10 c -4.951,29.328 1.199,28.762 10,60 m -206.999997,-58 v 2 m -62,-1 2,8 -8.0000004,8 6.0000004,3 v 1 l -1,1 h -1 m 295.999997,-21 2,4 m -235.999997,-2 v 3 m -70.0000004,-2 h 1 m 4.0000004,0 3,2 -1,3 1,1 m 101.999997,-6 3,4 m 197,-3 c 2.123,2.961 8.116,10.111 19.001,21 9.299,9.303 22.255,22.256 24.999,25 m -15,-46 -6,6 m -205,-5 c 1.629,4.13 2.301,6.621 2,12 m -133.9999974,-9 10.0000004,-1 m -11.00000044,1 H 1.1165626 m 94.0000004,0 h 5.000007 m 53.99999,20 c 0.136,-9.36 -1.893,-15.081 6,-19 m -83.999997,0 -2,11 -2,-5 m -17,-5 5,8 1,-3 m 252.999997,-5 c 2.883,2.883 11.58,11.58 20,20 10.186,10.186 21.906,21.906 25,25 m -265.999997,-44 -1,5 m 215.999997,-5 v 3 m -260.999997,-2 c -4.0133,7.353 -4.6912,13.593 -3,22 m 53,-21 v 4 m 18.999997,-4 c 0.696,7.499 1.647,13.129 1,19 m 34,-18 c -6.394,13.855 -6.622,20.86 1,30 l 2,-5 m -110.999997,-22 1,5 m 255.999997,0 2,-5 m -225.999997,1 2,3 m 192.999997,-3 c 4.878,4.936 10.442,9.631 13,18 m -242.999997,-14 h -2 l 2,-3 m 18,0 -1,5 10,14 c 4.457,-2.169 8.3069,-3.178 12,3 m -6,-21 -7,13 m 29,-13 1,5 m 23.999997,-5 v 2 m -108.999997,2 9,-1 m 18,-1 -2,3 m 97.999997,-3 -5,5 m -13,-4 -2,8 m 167,17 c -7.4,-7.415 -19.948,-9.285 -14,-25 m 0,0 15,17 m -118,-16 3,14 m -109.999997,-13 c -8.1822,10.495 -3.4671,17.202 4,25 2.0932,-3.074 3.4882,-4.955 6,-11 m -53,-13 5,3 -4,3 v -4 m 119.999997,-2 -3,7 c 3.761,-2.155 6.509,-4.048 11,-4 m 42,-3 6,10 v -9 m 7,0 14,16 -17,17 m -65,-32 v 3 l -4,1 m 62,-4 -2,3 m -43,-2 c -4.692,3.162 -6.596,4.213 -10,6 m 62,-6 13,15 m -116.999997,-14 v 2 m 14.999997,-1 c 1.404,5.262 3.264,8.602 7,15 l 3,-6 m 14,-9 2,2 m 53,-2 -3,4 4,-1 m 76,-3 14,21 m 14,-21 -1,1 m -248.999997,0 -2,6 m 213.999997,5 9,-9 m 26,1 h 1 m -154,1 c 5.756,16.118 17.704,14.152 5,5 m 119,-5 17,15 m -167,-14 h 4 m 80,0 12,5 m -178.999997,-4 -8,7 c 4.428,1.921 6.5023,1.073 9,-3 m 72.00001,-4 v 4 m 6.999987,-4 6,8 m -93.999997,-7 h 1 m 30,0 5,5 m 58.999997,-5 v 1 m 33,-1 -2,2 m 35,-1 1,4 m -130.999997,-3 1,6 -4,2 v -4 m 79.999997,-4 c 2.055,8.389 4.655,14.681 9,21 l 4,-9 m -138.99999744,-10 c 6.13733004,5.12 11.50250044,11.471 19.00000044,5 m 86.999997,-5 c 3.839,12.126 6.028,25.412 7,36 l 10,1 2,-13 m 65,8 c 18.381,-19.236 16.612,-34.354 40,-30 -8.842,8.842 -11.338,11.338 -25,25 m 82,-27 v 1 m -278.9999974,2 10.0000004,-1 m 134.999997,0 v 5 m 77,-5 9,7 c -8.067,8.067 -41.218,18.211 -35,45 l 1,-7 m -137.999997,-44 c 3.0577,3.155 5.1309,5.904 13,13 l 2,-3 m 31.999997,-10 -1,5 m 182,-4 c 9.596,7.274 25.721,32.002 42,30 m -272.999997,-29 c 3.1201,3.632 3.6561,12.914 15,14 v -2 m 2,-12 v 2 m -35,-1 c -9.3567,12.556 -16.8659,42.65 -20,36 m 26,-35 7,7 2,-6 m 43.999997,-1 -1.99999,7 v -5 m 175.99999,-1 h 2 m -136,2 3,10 m -132.999997,-9 6,2 -5,4 v -4 m 71,-1 1,8 m 202.999997,-8 -2,2 m -20,3 6,-4 m -214.999997,1 c -18.2008,17.528 -12.0595,43.577 -30,32 m 30,-32 c 2.0224,3.045 6.643,6.832 2,20 h 1 l 1,-2 m 40.999997,-18 c -0.69499,2.086 0.047,1.682 -1.99999,1 m 24.99999,0 2,1 m -109.999997,0 c 0.0152,3.077 -1.0328,3.406 -4,4 m 70,-4 v 4 m 18.000007,-4 -2,5 9.99999,3 m 22,-8 h 2 m 163,0 h 8 m -167,1 c -2.326,4.783 -4.679,4.927 -9,0 m -74.999997,1 c 1.6338,3.289 2.7332,5.948 6,13 m 227.999997,-13 -3,3 m -264.999997,-1 -3,6 4,1 c -5.4543,4.688 -11.8115,5.223 -19.0000004,7 m 42.0000004,-14 3,5 m 14,-5 v 6 m 16,-6 4,4 m 21.999997,-4 v 1 m 167,-1 c -12.537,14.159 -14.408,15.404 -22,23 m 25,-23 c 2.021,2.021 0.979,0.979 3,3 l 1,-3 m 80,0 -10,8 m -294.999997,-7 4,4 m 214.999997,-4 1,7 5,-5 m -203.999997,-1 8,10 3,-8 m 17.000007,-2 1,5 2.99999,-5 m 120,1 c -0.03,5.025 1.113,8.743 -3,20 m -84,-19 c -0.642,6.049 -3.607,11.411 -2,20 m 142,-20 c 9.668,18.948 -5.601,23.592 -15,33 m -248.999997,-32 h 3 m 5,1 5,-1 m 45,0 -8,35 c -14.3329,-3.298 -14.539,18.892 0,7 l 10,10 4,-6 m 204.999997,-46 -2,2 m -263.999997,-1 -3,2 m 47,-2 -2,2 m -2,-1 -2,5 m 47.000007,-5 8.99999,12 c -6.397,8.45 -8.92799,11.716 -12.99999,25 m 24.99999,-37 1,9 h -1 -1 m -56.999997,-8 6,7 m 15,-7 c -4.3689,10.712 -9.0171,10.248 -13,11 m 198.999997,-11 -21,21 m -229.999997,-18 c -2.5136,5.916 -4.6059,10.472 -2,17 m 61,-16 -6,6 m 53.999997,-5 6,6 m -108.999997,-6 -3,4 m 40,-3 7,7 m 59.999997,-7 1,7 m 9,-7 -1,5 m -78.999997,-4 4,11 -9,2 8,9 m -48,-21 -1,4 m 20,-4 8,8 m 286.999997,-8 c -9.468,10.696 -8.827,16.246 -9,21 m -296.999997,-20 v 4 m 98.999997,-4 c -5.877,2.108 -7.608,1.835 -10,2 m -77.999997,-1 -3,4 4,-2 m -33.0000004,1 h 4 l -4,4 5,3 -2,-3 m 88.0000004,-6 c -0.7488,5.488 -1.9325,9.269 -3,15 m 10.000007,-15 3.99999,9 m 105,-9 -4,7 m -85,-6 c -1.243,2.473 -2.209,3.95 -3,9 v 1 1 m 6,-11 v 4 m -25.999997,-3 h 1.00001 m 12.999987,0 4,4 m 88,-4 3,3 m -206.99999744,-2 3.00000004,3 m 89.0000004,1 v -4 l 1,2 m -60,-1 v 3 m 100.999997,-3 v 2 m -7,-1 v 1 m 72,0 v 1 m -198.99999744,0 1.00000004,3 m 42.0000004,-3 -5,5 m -30.0000004,-4 h 6.0000004 l 7,9 -4,9 c 2.4822,-3.091 4.7973,-5.413 8,-13 l -2,3 m 42,-8 2,2 m -56,-1 2,2 m 8,-2 2,4 m 85.999997,-4 4,7 m 86,-7 v 2 m -192.9999974,-1 -5,6 m 9.0000004,-6 -2.0000004,4 8.0000004,1 m 10,-5 v 2 m 82.999997,-2 -3,7 m -76.999997,-6 8,3 m -31.0000004,-2 1,2 m 3.0000004,-1 2,2 m -5.0000004,-1 -6,6 m 34.0000004,-6 -5,6 m 80.999997,-6 -1,9 -1,-5 m 88,-4 2,9 2,-8 m -151.999997,0 1,4 m 36,-4 v 1 m -65,0 v 2 m 18,-2 c -11.8056,29.591 -25.1533,17.52 -38.0000004,17 m 10.0000004,-16 c -4.0251204,4.025 -5.8000404,5.8 -10.0000004,10 m 13.0000004,-10 2,2 m 237.999997,-1 c -10.113,8.21 -24.02,21.267 -42,23 m -202.9999974,-22 6.0000004,5 m 11,-5 -4,1 m 68,-1 h 1 m -25,2 v 7 m 22,-7 v 1 m 106.999997,0 2,5 1,-4 m -91,0 v 4 l -1,-2 m 4,-2 v 3 m -90.999997,-2 6,2 m 3,-2 6,5 m 50,-5 v 1 m -67,1 -5,7 m 94.999997,-6 c -0.905,2.591 -1.235,4.335 -3.99999,4 m 93.99999,-4 v 3 m -196.99999744,2 1.00000004,1 m 17.0000004,3 c 3.5978,-0.994 5.4963,-1.505 11,1 m 34,-5 c 3.5519,3.828 6.3694,7.649 14,10 m 27.000007,-9 -3,3 m -70.000007,0 6,5 m 50,-4 v 2 m -8,1 2,-2 m -8,2 h 1 m 28.000007,0 c 1.506,1.825 5.55499,2.916 3.99999,0 m 5,3 v -3 m -17.999997,3 6.00001,-2 m -15.00001,2 h 3"
       id="path28" />
  </g>
</svg>
